<?xml version="1.0" standalone="no"?>
<!DOCTYPE svg PUBLIC "-//W3C//DTD SVG 20010904//EN"
 "http://www.w3.org/TR/2001/REC-SVG-20010904/DTD/svg10.dtd">
<svg version="1.0" xmlns="http://www.w3.org/2000/svg"
 width="5120.000000pt" height="3892.000000pt" viewBox="0 0 5120.000000 3892.000000"
 preserveAspectRatio="xMidYMid meet">

<g transform="translate(0.000000,3892.000000) scale(0.100000,-0.100000)"
fill="#000000" stroke="none">
<path d="M15030 34029 c-124 -4 -623 -12 -1110 -18 -487 -6 -948 -15 -1025
-21 -77 -5 -378 -12 -670 -15 -291 -3 -678 -10 -860 -16 -181 -5 -717 -14
-1190 -19 -473 -5 -959 -14 -1080 -19 -121 -6 -553 -15 -960 -21 -407 -6 -751
-13 -765 -16 -13 -3 -88 -67 -165 -142 -77 -75 -170 -163 -205 -194 -36 -31
-90 -80 -120 -109 -30 -28 -116 -106 -190 -173 -74 -66 -168 -152 -209 -191
-41 -38 -81 -77 -90 -85 -9 -8 -57 -53 -106 -100 -50 -47 -130 -121 -179 -165
-49 -44 -101 -91 -116 -105 -113 -107 -300 -280 -375 -347 -49 -44 -137 -124
-195 -179 -58 -54 -148 -137 -200 -183 -52 -47 -97 -87 -100 -91 -3 -3 -39
-37 -80 -75 -41 -38 -113 -105 -160 -149 -47 -45 -126 -117 -175 -161 -50 -44
-92 -82 -95 -85 -29 -29 -218 -205 -300 -280 -129 -117 -220 -201 -330 -306
-47 -44 -116 -109 -155 -144 -135 -122 -191 -174 -324 -299 -159 -150 -141
-133 -221 -201 -36 -30 -108 -96 -160 -146 -52 -50 -140 -131 -195 -180 -55
-49 -172 -157 -260 -239 -88 -83 -198 -184 -245 -225 -47 -41 -121 -109 -165
-151 -44 -42 -129 -121 -189 -175 -60 -54 -184 -169 -276 -254 -91 -85 -191
-177 -223 -204 -35 -31 -54 -53 -48 -59 6 -6 176 -5 438 2 235 7 577 16 758
21 182 5 510 9 730 10 220 0 614 7 875 15 261 8 616 15 788 16 l312 1 32 26
c18 15 44 39 58 53 33 35 331 312 395 368 28 24 61 53 75 65 14 12 93 85 176
162 83 76 184 168 225 204 40 36 108 97 149 136 92 86 166 153 204 185 16 13
38 32 49 43 10 10 44 41 76 69 31 27 85 78 121 111 36 34 87 79 115 101 27 22
90 79 140 126 49 47 137 128 195 180 100 90 150 137 375 351 55 53 123 114
150 137 28 23 57 47 65 54 88 74 111 91 149 108 56 24 200 29 234 6 12 -7 33
-17 47 -20 39 -9 119 -95 146 -156 28 -63 33 -164 9 -195 -8 -11 -15 -27 -15
-36 0 -16 -19 -43 -74 -108 -16 -18 -84 -81 -150 -140 -67 -58 -125 -110 -131
-117 -5 -6 -41 -39 -80 -74 -38 -36 -101 -94 -140 -130 -38 -36 -99 -91 -135
-121 -36 -30 -103 -91 -150 -136 -87 -83 -178 -166 -240 -219 -19 -17 -97 -89
-175 -160 -77 -72 -176 -161 -220 -200 -44 -38 -134 -119 -200 -180 -66 -61
-140 -128 -165 -149 -25 -22 -92 -83 -150 -136 -58 -54 -120 -110 -137 -125
-57 -47 -48 -51 115 -48 81 2 455 5 832 8 377 2 771 9 875 14 105 5 420 13
700 16 l510 6 60 57 c33 32 96 89 139 128 44 38 94 83 111 99 36 35 278 260
425 395 57 52 150 138 205 190 55 52 129 120 164 150 34 30 84 75 111 100 99
94 331 309 426 395 54 50 139 128 189 175 49 47 133 123 185 170 93 83 159
145 330 306 47 44 122 113 168 152 45 40 128 116 185 170 56 55 151 143 211
198 61 54 184 169 276 254 91 85 204 189 250 230 46 41 91 82 100 90 55 54
377 354 476 444 65 60 153 141 194 180 42 39 113 105 160 146 84 75 146 132
295 272 44 41 118 108 164 149 47 41 99 88 116 104 62 60 321 302 365 339 25
22 110 101 190 176 80 75 189 177 243 225 54 49 96 93 94 99 -5 14 -13 14
-277 5z"/>
<path d="M12350 30887 c-41 -39 -117 -110 -169 -157 -52 -47 -138 -125 -191
-175 -53 -49 -136 -126 -185 -170 -84 -75 -152 -139 -370 -346 -49 -47 -126
-117 -170 -155 -44 -38 -96 -85 -115 -104 -34 -34 -224 -210 -445 -414 -60
-56 -143 -133 -185 -172 -41 -39 -113 -105 -160 -145 -47 -41 -94 -83 -106
-94 -79 -77 -291 -273 -348 -321 -39 -33 -121 -108 -183 -168 -62 -60 -125
-115 -139 -122 -15 -8 -45 -13 -68 -12 -104 4 -1136 -14 -1536 -27 -245 -8
-654 -15 -910 -15 -422 0 -925 -13 -1007 -26 -24 -3 -54 -27 -114 -86 -44 -44
-92 -98 -106 -119 -24 -37 -25 -41 -13 -86 7 -27 19 -55 27 -64 7 -8 13 -26
13 -40 0 -13 9 -35 20 -49 11 -14 20 -35 20 -47 0 -12 6 -28 13 -35 8 -7 17
-27 21 -43 4 -17 13 -43 20 -60 8 -16 23 -51 35 -76 12 -25 21 -53 21 -61 0
-8 7 -23 15 -34 8 -10 15 -26 15 -34 0 -8 9 -32 20 -53 11 -20 20 -45 20 -54
0 -10 9 -31 20 -48 11 -16 20 -40 20 -51 0 -12 7 -27 15 -34 8 -7 15 -22 15
-34 0 -12 7 -31 15 -42 8 -10 15 -25 15 -33 0 -8 9 -33 19 -55 40 -87 61 -139
61 -157 0 -9 7 -24 15 -32 7 -8 17 -28 21 -43 4 -16 13 -38 20 -49 8 -11 14
-29 14 -40 0 -11 9 -33 20 -50 11 -16 20 -40 20 -51 0 -12 7 -27 15 -34 8 -7
15 -25 15 -40 0 -15 9 -39 20 -53 11 -14 20 -33 20 -44 0 -10 9 -31 20 -48 11
-16 20 -38 20 -48 0 -9 9 -34 20 -54 11 -21 20 -45 20 -53 0 -8 7 -24 15 -34
8 -11 15 -26 15 -34 0 -13 21 -65 55 -132 7 -14 15 -41 19 -61 4 -21 13 -42
21 -49 8 -7 15 -22 15 -34 0 -12 7 -31 15 -42 8 -10 15 -28 15 -39 0 -11 10
-40 23 -64 16 -32 30 -47 52 -53 52 -15 825 -23 918 -9 45 6 123 13 172 16 50
2 125 11 168 19 43 9 102 16 130 16 29 0 96 9 150 20 55 11 114 20 132 20 19
0 60 7 92 15 31 8 79 15 105 15 26 0 70 9 98 20 28 11 67 20 86 20 19 0 45 5
56 11 12 6 48 15 82 20 34 5 73 11 88 15 38 9 46 -16 24 -75 -9 -25 -16 -64
-16 -86 0 -22 -9 -73 -20 -113 -11 -39 -20 -91 -20 -116 0 -24 -7 -63 -15 -86
-8 -23 -15 -59 -15 -79 0 -21 -9 -71 -20 -112 -11 -41 -20 -92 -20 -115 0 -22
-6 -63 -14 -90 -8 -27 -18 -78 -21 -114 -4 -36 -14 -85 -21 -110 -8 -25 -14
-61 -14 -81 0 -19 -9 -69 -20 -110 -11 -41 -20 -92 -20 -115 0 -22 -7 -63 -15
-90 -8 -27 -15 -65 -15 -85 0 -19 -8 -69 -19 -110 -10 -41 -21 -101 -24 -134
-4 -33 -13 -80 -22 -104 -8 -24 -15 -65 -15 -92 0 -26 -5 -60 -11 -76 -6 -15
-15 -64 -20 -109 -5 -45 -16 -100 -24 -124 -8 -23 -15 -63 -15 -89 0 -25 -9
-78 -20 -116 -11 -38 -20 -89 -20 -112 0 -23 -5 -54 -11 -70 -6 -15 -15 -64
-20 -108 -4 -44 -15 -100 -24 -124 -8 -24 -15 -65 -15 -90 0 -26 -6 -70 -14
-97 -8 -27 -17 -78 -21 -112 -3 -35 -11 -76 -17 -90 -6 -15 -14 -63 -19 -107
-4 -44 -15 -100 -24 -124 -8 -24 -15 -65 -15 -91 0 -26 -6 -65 -13 -86 -8 -22
-17 -71 -20 -110 -4 -39 -14 -90 -22 -114 -8 -23 -15 -64 -15 -90 0 -27 -9
-77 -20 -112 -11 -34 -20 -84 -20 -109 0 -26 -6 -64 -13 -85 -8 -22 -17 -71
-20 -110 -4 -39 -14 -90 -22 -114 -8 -23 -15 -63 -15 -89 0 -25 -9 -73 -19
-106 -11 -33 -19 -83 -19 -111 -1 -27 -6 -63 -13 -79 -6 -17 -15 -64 -19 -106
-5 -42 -16 -98 -24 -123 -9 -26 -16 -68 -16 -95 0 -27 -6 -66 -14 -87 -7 -22
-16 -73 -20 -114 -4 -41 -14 -90 -22 -109 -8 -18 -14 -54 -14 -80 0 -25 -7
-71 -16 -101 -9 -30 -20 -89 -24 -130 -4 -41 -13 -88 -19 -103 -6 -16 -11 -47
-11 -70 0 -23 -9 -74 -20 -112 -11 -38 -20 -88 -20 -110 0 -22 -9 -71 -20
-110 -11 -38 -18 -77 -15 -85 3 -9 -4 -50 -15 -91 -11 -40 -20 -93 -20 -116 0
-22 -9 -70 -20 -105 -11 -34 -20 -83 -20 -108 0 -25 -7 -67 -15 -94 -8 -27
-15 -66 -15 -86 0 -20 -9 -70 -20 -111 -11 -41 -20 -92 -20 -114 0 -22 -7 -62
-15 -90 -9 -27 -18 -77 -21 -110 -3 -33 -12 -82 -20 -109 -8 -27 -14 -68 -14
-90 0 -23 -9 -70 -20 -106 -11 -36 -20 -83 -20 -105 0 -22 -8 -71 -19 -108
-10 -38 -17 -77 -14 -87 3 -10 -5 -52 -16 -94 -12 -42 -21 -93 -21 -114 0 -20
-8 -66 -18 -102 -11 -36 -20 -86 -20 -111 -1 -25 -9 -68 -17 -95 -8 -27 -15
-67 -15 -89 0 -22 -9 -72 -20 -110 -11 -38 -20 -88 -20 -110 0 -22 -9 -71 -19
-108 -11 -38 -18 -74 -15 -82 3 -8 -4 -50 -15 -94 -12 -44 -21 -98 -21 -119 0
-21 -7 -61 -15 -88 -9 -27 -18 -76 -21 -109 -3 -33 -12 -82 -20 -109 -8 -27
-14 -66 -14 -86 0 -20 -9 -70 -20 -111 -11 -41 -20 -92 -20 -114 0 -22 -6 -60
-14 -85 -7 -25 -17 -76 -21 -114 -4 -38 -13 -87 -21 -109 -8 -22 -14 -58 -14
-81 0 -23 -9 -74 -20 -114 -11 -39 -20 -91 -20 -116 0 -24 -6 -61 -13 -82 -8
-22 -17 -71 -20 -110 -4 -39 -14 -90 -22 -114 -8 -23 -15 -61 -15 -85 0 -23
-6 -63 -14 -89 -8 -26 -18 -78 -22 -114 -4 -37 -13 -87 -20 -112 -8 -25 -14
-61 -14 -81 0 -19 -9 -69 -20 -110 -11 -41 -20 -92 -20 -115 0 -22 -6 -63 -14
-90 -8 -27 -17 -78 -21 -114 -3 -36 -13 -84 -21 -108 -8 -23 -14 -60 -14 -81
0 -20 -9 -71 -20 -112 -11 -41 -20 -93 -20 -116 0 -23 -5 -54 -11 -70 -6 -15
-15 -64 -20 -109 -5 -45 -16 -100 -24 -124 -8 -23 -15 -63 -15 -89 0 -25 -9
-78 -20 -116 -11 -38 -20 -89 -20 -112 0 -23 -5 -54 -11 -70 -6 -15 -15 -64
-20 -109 -5 -45 -16 -100 -24 -124 -8 -23 -15 -63 -15 -89 0 -25 -9 -78 -20
-116 -11 -38 -20 -89 -20 -112 0 -23 -5 -54 -11 -70 -6 -15 -15 -64 -20 -108
-4 -44 -15 -100 -24 -124 -8 -24 -15 -65 -15 -92 0 -26 -5 -60 -11 -76 -6 -15
-15 -66 -21 -112 -5 -46 -16 -102 -24 -124 -8 -22 -14 -61 -14 -87 0 -27 -9
-77 -20 -112 -11 -34 -20 -84 -20 -109 0 -26 -6 -64 -13 -85 -8 -22 -17 -71
-20 -110 -4 -39 -14 -90 -22 -114 -8 -23 -15 -64 -15 -90 0 -27 -9 -77 -20
-112 -11 -34 -20 -84 -20 -110 0 -26 -5 -59 -11 -75 -6 -15 -15 -64 -20 -108
-4 -44 -15 -100 -24 -124 -8 -24 -15 -63 -15 -87 0 -25 -9 -75 -19 -114 -11
-38 -17 -77 -15 -87 3 -10 -2 -43 -11 -73 -9 -30 -20 -89 -25 -130 -4 -41 -15
-95 -24 -120 -9 -25 -16 -68 -16 -97 0 -28 -5 -64 -11 -80 -6 -15 -15 -62 -19
-103 -5 -41 -15 -95 -24 -120 -9 -25 -16 -66 -16 -91 0 -26 -9 -77 -21 -113
-11 -37 -18 -75 -14 -85 3 -9 -4 -53 -15 -96 -11 -43 -20 -94 -20 -114 0 -20
-9 -68 -20 -106 -11 -38 -20 -88 -20 -111 0 -22 -7 -63 -15 -91 -8 -28 -17
-77 -20 -109 -2 -33 -11 -81 -20 -108 -8 -27 -15 -68 -15 -90 0 -23 -8 -68
-18 -101 -10 -33 -19 -84 -21 -112 -1 -29 -6 -65 -12 -80 -6 -16 -15 -64 -20
-109 -5 -45 -16 -100 -24 -124 -8 -23 -15 -64 -15 -91 0 -26 -5 -60 -11 -76
-6 -15 -15 -66 -21 -112 -5 -46 -16 -102 -24 -124 -8 -22 -14 -58 -14 -81 0
-23 -8 -73 -19 -111 -10 -39 -19 -88 -20 -110 -1 -22 -9 -65 -18 -95 -8 -30
-15 -71 -14 -91 0 -19 -8 -66 -19 -105 -11 -38 -20 -87 -20 -110 0 -22 -7 -63
-15 -91 -8 -28 -17 -77 -19 -110 -3 -33 -13 -85 -24 -116 -13 -39 -15 -60 -8
-67 7 -7 3026 -10 9643 -10 l9633 0 5 27 c3 16 12 57 20 93 8 36 15 81 15 100
0 20 9 68 20 108 11 39 20 89 20 110 0 21 6 61 14 88 8 27 17 79 20 117 4 37
11 80 17 95 6 15 15 63 20 107 4 44 15 100 24 124 8 24 15 65 15 90 0 26 6 70
14 97 8 27 17 79 20 116 4 37 13 86 21 109 8 23 15 60 15 83 0 23 9 74 20 114
11 39 20 92 20 116 0 25 5 57 11 73 6 15 15 64 20 108 4 44 15 100 24 124 8
24 15 64 15 90 0 25 9 75 20 111 11 36 17 73 14 82 -3 10 4 54 15 98 12 44 21
97 21 118 0 21 7 61 15 88 8 27 18 76 21 109 3 33 12 82 20 109 8 27 14 66 14
86 0 20 9 70 20 111 11 41 20 92 20 115 0 22 6 63 14 90 8 27 17 76 20 109 4
33 13 82 21 109 8 27 15 68 15 90 0 23 9 73 20 111 11 38 20 91 20 116 0 26 6
64 13 85 8 22 17 71 20 110 4 39 14 90 22 114 8 23 15 61 15 84 0 23 7 66 16
96 8 30 19 87 23 125 8 69 14 103 46 260 9 44 20 114 25 155 4 41 15 95 23
120 8 25 15 66 15 91 0 25 7 69 16 99 9 29 16 70 16 90 0 19 9 68 20 108 11
39 20 92 20 116 0 25 5 57 11 73 6 15 15 66 20 112 5 47 14 90 20 97 6 7 8 18
4 24 -4 7 -1813 10 -5888 10 -3416 0 -5888 4 -5896 9 -17 11 -9 129 14 205 8
27 15 65 15 85 0 20 9 69 20 109 11 39 20 89 20 110 0 21 7 61 15 89 8 28 17
77 19 109 3 33 12 79 20 103 9 24 16 63 16 86 0 24 9 72 20 107 11 34 20 83
20 108 0 25 7 68 15 95 9 28 18 77 20 110 2 33 11 80 19 104 9 24 16 63 16 86
0 24 9 72 20 107 11 34 20 84 20 110 0 26 5 59 11 75 6 15 15 62 20 104 5 42
16 95 24 119 8 23 15 61 15 84 0 24 6 65 14 92 8 27 16 76 20 109 3 33 12 80
21 104 8 24 15 61 15 83 0 50 19 124 35 138 8 7 1550 10 4941 11 2711 1 4940
4 4954 8 22 6 26 14 32 71 3 36 11 81 17 100 6 19 11 51 11 71 0 19 9 69 20
110 11 41 20 92 20 115 0 22 6 63 14 90 8 27 17 76 21 109 3 33 13 82 21 109
8 27 14 66 14 86 0 20 9 70 20 111 11 41 20 93 20 116 0 23 5 54 11 69 5 16
14 64 20 109 5 44 14 94 20 110 6 17 14 59 19 95 8 72 33 211 55 310 8 36 15
79 15 96 0 17 9 64 20 105 11 41 20 92 20 115 0 22 6 63 14 90 8 27 17 76 20
109 4 33 13 82 21 109 8 27 15 68 15 90 0 23 9 73 20 111 11 38 20 88 20 111
0 22 7 63 15 90 8 27 15 65 15 85 0 19 9 69 20 110 11 41 20 92 20 114 0 22 9
72 20 110 11 38 20 88 20 110 0 22 7 62 15 89 8 27 15 66 15 86 0 20 9 70 20
111 11 41 20 92 20 115 0 22 6 63 14 90 8 27 17 78 21 112 3 35 11 76 17 90 6
15 14 63 19 107 4 44 15 100 24 124 8 24 15 65 15 90 0 26 6 70 14 97 8 27 17
78 21 112 3 35 11 76 17 90 6 15 14 63 19 107 4 44 15 100 24 124 8 24 15 65
15 91 0 26 6 65 13 86 8 22 17 71 20 110 4 39 14 90 22 114 8 23 15 63 15 88
0 25 5 61 12 79 10 29 10 36 -2 43 -9 6 -1923 10 -4946 10 -4327 0 -4933 2
-4944 15 -14 17 -6 96 16 159 8 21 14 57 14 80 0 24 6 65 14 92 8 27 18 78 21
114 4 36 12 76 17 90 5 14 14 61 19 106 5 45 16 100 24 124 8 23 15 61 15 85
0 23 7 64 15 91 8 27 15 65 15 85 0 19 9 69 20 110 11 41 20 92 20 115 0 22 7
63 15 90 9 27 18 76 21 109 3 33 12 82 20 109 8 27 14 66 14 86 0 19 9 68 20
108 11 39 20 89 20 110 0 21 7 62 16 91 8 30 17 78 20 108 2 30 11 78 19 106
8 28 15 67 15 88 0 21 7 45 16 53 14 15 553 16 5787 16 5032 0 5775 2 5793 15
17 11 22 29 27 83 4 38 14 88 22 112 8 23 15 61 15 84 0 22 9 75 20 116 11 41
20 91 20 110 0 19 7 60 15 90 8 30 15 71 15 91 0 19 9 69 20 110 11 41 20 92
20 114 0 22 9 72 20 110 11 38 20 91 20 116 0 26 6 64 13 85 8 22 17 71 20
110 4 39 14 90 22 114 8 23 15 64 15 90 0 27 9 77 20 112 11 34 20 83 20 108
0 25 7 67 15 94 8 27 15 68 15 90 0 23 9 74 20 114 11 39 20 89 20 109 0 21 9
68 19 105 11 37 17 75 15 85 -3 10 4 54 16 97 11 44 20 95 20 115 0 20 7 61
15 91 9 30 18 80 20 111 3 31 12 78 20 105 8 27 15 67 15 89 0 22 9 73 20 113
11 39 20 92 20 116 0 25 5 57 11 72 5 16 15 64 20 109 6 44 17 102 24 129 8
27 15 66 15 86 0 20 9 70 20 111 11 41 20 95 20 120 0 26 6 64 13 85 8 22 17
71 20 110 4 39 14 90 22 114 8 23 15 64 15 90 0 27 9 77 20 112 11 34 20 83
20 108 0 25 7 67 15 94 8 27 15 68 15 90 0 23 9 73 20 111 11 38 20 88 20 110
0 22 9 70 19 107 11 37 17 75 15 85 -3 10 4 54 16 97 11 44 20 95 20 115 0 20
9 70 20 111 11 41 20 91 20 111 0 19 7 58 15 87 18 59 26 140 15 147 -5 3
-3417 5 -7582 5 -8104 0 -7640 -3 -7592 46 68 70 85 97 79 123 -4 14 -13 33
-21 42 -8 8 -14 27 -14 41 0 14 -9 37 -20 51 -11 14 -20 34 -20 45 0 11 -7 27
-15 36 -8 8 -15 21 -15 28 0 7 -9 30 -20 51 -11 20 -20 44 -20 52 0 8 -9 32
-20 52 -11 21 -20 45 -20 53 0 8 -7 24 -15 34 -8 11 -15 30 -15 42 0 12 -9 33
-20 47 -11 14 -20 37 -20 50 0 14 -5 29 -10 32 -6 3 -15 26 -21 50 -6 25 -17
50 -25 56 -8 6 -14 21 -14 33 0 11 -9 35 -20 51 -11 17 -20 38 -20 48 0 9 -9
34 -20 54 -11 21 -20 45 -20 53 0 8 -7 24 -15 34 -8 11 -15 28 -15 38 0 11 -8
36 -19 56 -45 90 -51 105 -51 120 0 9 -9 32 -20 50 -11 18 -20 40 -20 50 0 9
-7 26 -15 36 -8 11 -15 30 -15 42 0 12 -9 33 -20 47 -11 14 -20 32 -20 41 0 9
-9 33 -20 53 -11 21 -20 43 -20 50 0 7 -9 30 -20 50 -11 21 -20 45 -20 53 0 8
-7 24 -15 34 -8 11 -15 28 -15 38 0 10 -9 35 -20 55 -11 21 -20 45 -20 53 0 8
-7 24 -15 34 -8 11 -15 30 -15 42 0 12 -9 33 -20 47 -11 14 -20 34 -20 44 0
11 -7 28 -15 39 -8 10 -15 27 -15 38 0 10 -8 35 -19 55 -40 78 -61 129 -61
148 0 11 -7 26 -15 33 -8 7 -15 20 -15 29 0 9 -9 33 -20 54 -11 21 -19 46 -18
55 6 37 -31 18 -102 -51z"/>
<path d="M30341 28248 c-20 -7 -31 -47 -31 -112 0 -22 -7 -59 -15 -81 -8 -22
-14 -58 -15 -81 0 -22 -9 -74 -20 -115 -11 -41 -20 -92 -20 -115 0 -22 -6 -63
-14 -90 -8 -27 -17 -76 -20 -109 -4 -33 -13 -82 -21 -109 -8 -27 -15 -66 -15
-86 0 -20 -9 -70 -20 -111 -11 -41 -20 -93 -20 -116 0 -23 -5 -54 -11 -70 -6
-15 -15 -64 -20 -109 -5 -45 -16 -100 -24 -124 -8 -23 -15 -64 -15 -90 0 -27
-9 -77 -20 -112 -11 -34 -20 -84 -20 -110 0 -26 -5 -59 -11 -75 -6 -15 -15
-64 -20 -108 -4 -44 -15 -100 -24 -124 -8 -24 -15 -65 -15 -92 0 -26 -5 -60
-11 -75 -5 -16 -14 -64 -20 -109 -5 -44 -16 -100 -23 -125 -8 -25 -17 -74 -20
-110 -3 -36 -12 -85 -20 -109 -9 -24 -16 -65 -16 -91 0 -26 -6 -65 -13 -86 -8
-22 -17 -71 -20 -110 -4 -39 -14 -90 -22 -114 -8 -23 -15 -64 -15 -90 0 -27
-9 -77 -20 -112 -11 -34 -20 -84 -20 -109 0 -26 -6 -64 -13 -85 -8 -22 -17
-71 -20 -110 -4 -39 -14 -90 -22 -114 -8 -23 -15 -64 -15 -90 0 -26 -9 -76
-19 -111 -11 -35 -19 -85 -20 -110 0 -25 -5 -59 -12 -75 -6 -16 -15 -63 -19
-105 -5 -42 -16 -98 -24 -123 -9 -26 -16 -68 -16 -95 0 -27 -6 -66 -14 -87 -7
-22 -16 -72 -20 -113 -4 -41 -14 -91 -21 -110 -7 -20 -16 -65 -18 -101 -3 -36
-12 -85 -21 -110 -9 -25 -16 -68 -16 -96 0 -28 -7 -71 -15 -94 -8 -23 -15 -59
-15 -80 0 -20 -9 -72 -20 -115 -11 -43 -20 -94 -20 -114 0 -20 -9 -67 -20
-106 -11 -38 -18 -77 -15 -85 3 -9 -4 -50 -15 -91 -11 -40 -20 -93 -20 -116 0
-22 -9 -70 -20 -105 -11 -34 -20 -83 -20 -108 0 -25 -7 -67 -15 -94 -8 -26
-17 -76 -19 -110 -3 -33 -12 -81 -20 -105 -9 -24 -16 -64 -16 -90 0 -25 -7
-68 -16 -96 -8 -27 -17 -79 -20 -114 -3 -35 -10 -76 -16 -90 -5 -14 -14 -62
-19 -107 -5 -45 -16 -100 -24 -124 -8 -23 -15 -63 -15 -89 0 -25 -7 -68 -15
-95 -8 -26 -17 -74 -19 -105 -3 -31 -12 -78 -21 -106 -8 -27 -15 -68 -15 -90
0 -22 -9 -73 -20 -113 -11 -39 -20 -89 -20 -110 0 -21 -7 -61 -15 -88 -8 -27
-15 -67 -15 -89 0 -22 -9 -72 -20 -110 -11 -38 -20 -88 -20 -111 0 -22 -7 -63
-15 -91 -8 -28 -17 -76 -20 -108 -3 -31 -12 -80 -20 -108 -8 -28 -15 -69 -15
-91 0 -23 -9 -73 -20 -111 -11 -38 -20 -88 -20 -110 0 -22 -7 -62 -15 -89 -8
-27 -15 -66 -15 -86 0 -20 -9 -70 -20 -111 -11 -41 -20 -92 -20 -115 0 -22 -6
-63 -14 -90 -8 -27 -18 -78 -21 -114 -4 -36 -12 -76 -17 -90 -5 -14 -14 -61
-19 -106 -5 -45 -16 -100 -24 -124 -8 -23 -15 -64 -15 -90 0 -26 -6 -65 -13
-86 -8 -22 -17 -71 -20 -110 -4 -39 -14 -90 -22 -114 -8 -23 -15 -61 -15 -85
0 -23 -6 -63 -14 -89 -8 -26 -18 -78 -22 -114 -4 -37 -13 -87 -20 -112 -8 -25
-14 -61 -14 -81 0 -19 -9 -69 -20 -110 -11 -41 -20 -92 -20 -115 0 -22 -6 -63
-14 -90 -8 -27 -17 -76 -20 -109 -4 -33 -13 -82 -21 -109 -8 -27 -15 -66 -15
-86 0 -20 -9 -70 -20 -111 -11 -41 -20 -92 -20 -114 0 -22 -7 -62 -15 -89 -8
-27 -15 -66 -15 -86 0 -20 -9 -70 -20 -111 -11 -41 -20 -90 -20 -110 0 -19 -9
-69 -20 -110 -11 -41 -20 -93 -20 -116 0 -23 -5 -54 -11 -70 -6 -15 -15 -64
-20 -109 -5 -45 -16 -100 -24 -124 -8 -23 -15 -63 -15 -89 0 -25 -9 -78 -20
-116 -11 -38 -20 -89 -20 -112 0 -23 -5 -54 -11 -70 -6 -15 -15 -64 -20 -108
-4 -44 -15 -100 -24 -124 -8 -24 -15 -65 -15 -92 0 -26 -5 -60 -11 -76 -6 -15
-15 -66 -21 -112 -5 -46 -16 -102 -24 -124 -8 -22 -14 -61 -14 -87 0 -27 -9
-77 -20 -112 -11 -34 -20 -84 -20 -109 0 -26 -6 -64 -13 -85 -8 -22 -17 -71
-20 -110 -4 -39 -14 -90 -22 -114 -8 -23 -15 -64 -15 -90 0 -27 -9 -77 -20
-112 -11 -34 -20 -84 -20 -110 0 -26 -5 -59 -11 -75 -6 -15 -15 -64 -20 -108
-4 -44 -15 -100 -24 -124 -8 -24 -15 -63 -15 -87 0 -25 -9 -75 -19 -114 -11
-38 -17 -77 -15 -87 3 -10 -2 -43 -11 -73 -9 -30 -20 -89 -25 -130 -4 -41 -15
-95 -24 -120 -9 -25 -16 -68 -16 -96 0 -28 -7 -71 -15 -94 -8 -23 -15 -61 -15
-84 0 -23 -9 -74 -20 -114 -11 -39 -20 -89 -20 -111 0 -21 -9 -69 -21 -105
-11 -37 -18 -75 -14 -85 3 -9 -4 -53 -15 -96 -11 -43 -20 -94 -20 -114 0 -20
-9 -68 -20 -106 -11 -38 -20 -88 -20 -110 0 -22 -9 -71 -19 -108 -11 -38 -18
-74 -15 -82 3 -8 -4 -50 -15 -94 -12 -44 -21 -98 -21 -120 0 -21 -9 -68 -20
-103 -11 -34 -20 -83 -20 -108 0 -25 -7 -67 -15 -94 -8 -27 -15 -68 -15 -90 0
-23 -9 -73 -20 -111 -11 -38 -20 -88 -20 -110 0 -22 -7 -62 -15 -89 -8 -26
-17 -75 -20 -108 -2 -33 -11 -82 -20 -111 -8 -28 -15 -67 -15 -87 0 -19 -9
-68 -20 -108 -11 -39 -20 -91 -20 -116 0 -24 -7 -63 -16 -87 -9 -24 -15 -62
-15 -84 0 -22 -9 -73 -19 -113 -11 -40 -20 -89 -20 -111 0 -21 -7 -60 -15 -87
-8 -27 -17 -77 -20 -110 -3 -34 -12 -83 -20 -110 -8 -27 -15 -67 -15 -89 0
-22 -9 -72 -20 -110 -11 -38 -20 -88 -20 -110 0 -22 -7 -62 -15 -89 -8 -26
-17 -76 -20 -110 -2 -33 -11 -83 -20 -110 -8 -27 -15 -68 -15 -91 0 -23 -6
-64 -14 -91 -8 -27 -18 -78 -21 -114 -4 -36 -12 -76 -17 -90 -5 -14 -14 -61
-19 -106 -5 -45 -16 -100 -24 -124 -8 -23 -15 -64 -15 -91 0 -26 -5 -60 -11
-76 -6 -15 -15 -66 -21 -112 -5 -46 -16 -102 -24 -124 -8 -22 -14 -58 -14 -81
0 -23 -9 -74 -20 -114 -11 -39 -20 -91 -20 -116 0 -24 -6 -61 -13 -82 -8 -22
-17 -71 -20 -110 -4 -39 -14 -90 -22 -114 -8 -23 -15 -61 -15 -84 0 -24 -6
-65 -14 -92 -8 -27 -18 -80 -22 -119 -4 -38 -13 -87 -20 -109 -8 -21 -14 -55
-14 -75 0 -21 -9 -71 -20 -112 -11 -41 -20 -95 -20 -120 0 -26 -6 -64 -13 -85
-8 -22 -17 -71 -20 -110 -4 -39 -14 -91 -22 -115 -9 -24 -13 -49 -11 -56 8
-19 7461 -19 7473 0 4 6 6 22 5 34 -2 12 6 56 17 98 12 41 21 95 21 118 0 24
6 66 14 93 8 27 17 78 21 112 3 35 11 76 16 90 6 15 15 66 20 115 5 48 16 104
24 123 8 20 15 60 15 88 0 28 7 74 15 101 9 28 18 77 20 110 2 33 11 80 19
104 9 24 16 65 16 91 0 26 9 76 19 111 10 35 19 84 20 108 0 24 8 66 16 94 8
28 15 69 15 91 0 23 9 73 20 111 11 38 20 88 20 111 0 22 7 63 15 91 8 28 17
77 20 109 2 33 11 81 20 108 8 27 15 68 15 91 0 23 6 64 14 91 8 27 18 78 21
114 4 36 14 85 21 110 8 25 14 63 14 85 0 22 9 72 20 110 11 38 20 88 20 111
0 22 6 63 14 90 8 27 17 79 20 117 4 37 11 80 17 95 6 15 15 63 20 107 4 44
15 100 24 124 8 24 15 65 15 91 0 26 7 69 15 96 8 27 18 80 21 117 3 38 11 85
19 105 7 21 16 66 18 102 3 36 12 85 21 110 9 25 16 68 16 97 0 28 5 64 11 80
6 15 15 64 20 109 5 45 16 100 24 124 8 23 15 63 15 89 0 25 7 69 15 96 9 28
18 76 20 109 3 32 12 81 20 109 8 28 15 69 15 91 0 23 9 73 20 111 11 38 20
88 20 110 0 22 7 62 15 89 8 27 15 66 15 86 0 20 9 70 20 111 11 41 20 92 20
115 0 22 6 63 14 90 8 27 17 76 20 109 4 33 13 82 21 109 8 27 15 66 15 86 0
20 9 70 20 111 11 41 20 95 20 120 0 26 6 64 13 85 8 22 17 71 20 110 4 39 14
90 22 114 8 23 15 61 15 84 0 23 7 66 15 96 8 30 18 71 22 90 3 19 10 41 16
48 7 9 635 12 3076 12 2677 0 3080 2 3176 15 61 9 166 18 235 21 69 3 158 12
199 20 40 8 111 17 157 19 46 3 114 11 150 20 36 8 84 15 108 15 23 0 65 7 92
15 27 8 87 19 134 24 47 5 98 14 113 20 16 6 43 11 60 11 18 0 61 9 95 20 35
11 79 20 99 20 19 0 43 5 54 11 11 5 54 17 97 25 42 8 81 19 86 24 6 6 26 10
46 10 19 0 45 7 57 15 11 8 40 17 64 21 24 4 56 13 71 20 15 8 40 14 55 14 16
0 45 9 66 20 20 11 46 20 58 20 11 0 33 6 47 14 32 17 113 44 164 55 20 5 48
16 62 25 14 9 34 16 45 16 11 0 32 6 48 14 15 7 48 22 73 33 25 11 66 30 91
42 25 11 51 21 58 21 6 0 28 9 48 20 21 11 43 20 49 20 6 0 17 7 24 15 7 8 23
15 35 15 12 0 28 6 34 14 7 8 25 18 41 21 16 3 34 13 41 21 6 8 19 14 28 14 9
0 30 9 46 20 17 11 37 20 46 20 9 0 22 6 28 14 7 8 25 18 41 21 16 3 34 13 41
21 6 8 18 14 26 14 8 0 26 9 40 20 14 11 34 20 44 20 11 0 19 4 19 9 0 5 18
16 39 24 22 9 42 21 46 27 3 5 14 10 24 10 10 0 24 6 30 14 7 8 26 18 42 21
16 4 32 12 36 18 5 7 33 25 63 40 77 39 114 61 118 69 2 4 27 19 55 33 67 34
166 94 239 146 29 20 175 118 200 134 14 9 98 71 163 120 11 8 54 41 95 72 67
51 153 119 375 299 83 67 720 701 753 748 12 18 57 71 99 117 41 46 102 118
133 159 32 41 72 91 90 110 18 19 39 46 48 60 9 14 31 43 49 66 18 23 33 46
33 51 0 6 7 13 15 17 8 3 15 11 15 17 0 6 18 33 40 59 22 26 40 51 40 55 0 4
17 29 38 55 34 43 64 89 115 174 11 17 29 42 41 56 12 14 30 41 40 60 10 19
26 44 35 55 9 11 28 40 41 65 13 25 36 65 52 90 15 25 39 69 53 98 15 28 30
52 34 52 3 0 12 12 18 28 7 15 16 34 22 42 5 8 14 26 20 40 11 26 24 48 53 92
10 15 18 34 18 41 0 8 7 20 15 27 8 7 15 20 15 30 0 9 9 29 20 43 11 14 20 30
20 37 0 7 9 23 20 37 11 14 20 34 20 43 0 10 7 23 15 30 8 7 15 21 15 32 0 11
7 32 15 46 8 15 19 38 25 52 5 14 14 32 19 40 4 8 18 38 31 65 12 28 31 67 41
87 11 20 19 45 19 55 0 10 7 27 15 37 8 11 15 28 15 38 0 9 9 32 20 50 11 18
20 41 20 50 0 9 6 29 14 45 46 97 56 120 56 138 0 11 9 34 20 50 11 17 20 41
20 53 0 13 6 36 14 50 8 15 18 44 21 65 3 20 10 37 15 37 5 0 12 17 15 37 3
21 15 55 25 75 11 20 20 50 20 65 0 15 7 37 15 47 8 11 15 33 15 48 0 16 9 46
20 68 11 22 20 51 20 65 0 14 6 38 14 53 7 15 16 47 20 71 4 24 13 56 21 72 8
15 15 40 15 54 0 23 22 115 55 225 7 25 16 67 20 93 4 27 13 67 21 89 8 22 14
57 14 78 0 21 6 60 14 86 21 74 48 220 56 304 5 41 15 103 24 136 9 34 16 84
16 112 0 28 7 86 15 129 8 43 15 103 15 133 0 30 7 102 15 160 8 58 22 278 30
490 16 422 8 911 -20 1165 -8 72 -17 166 -20 210 -4 44 -13 110 -21 147 -8 37
-14 91 -14 121 0 29 -9 87 -20 128 -11 41 -20 90 -20 110 0 20 -7 53 -15 72
-8 20 -17 62 -21 94 -3 32 -12 75 -20 96 -8 20 -14 52 -14 71 0 18 -8 48 -17
67 -9 19 -20 52 -24 74 -14 72 -50 200 -60 209 -5 6 -9 24 -9 41 0 17 -6 40
-14 51 -8 11 -17 37 -20 58 -3 21 -13 47 -21 59 -8 12 -15 32 -15 45 0 12 -9
40 -20 62 -11 22 -20 48 -20 59 0 19 -18 62 -56 133 -8 14 -14 35 -14 46 0 11
-7 25 -15 32 -8 7 -15 23 -15 35 0 12 -9 34 -20 48 -11 14 -20 31 -20 37 0 12
-33 89 -51 120 -5 8 -14 26 -20 40 -6 14 -15 32 -20 40 -5 8 -12 22 -15 30 -3
8 -10 22 -15 30 -5 8 -14 26 -20 40 -6 14 -15 32 -20 40 -5 8 -12 22 -15 30
-16 45 -74 149 -101 185 -5 6 -14 21 -20 35 -7 14 -19 34 -25 44 -53 79 -78
122 -78 132 0 6 -9 19 -20 29 -11 10 -20 24 -20 32 0 7 -7 16 -15 19 -8 4 -15
10 -15 15 0 10 -186 286 -226 335 -88 109 -142 176 -169 209 -78 100 -320 356
-420 445 -27 25 -82 74 -121 110 -39 36 -90 82 -115 102 -151 125 -216 180
-230 193 -9 8 -18 15 -22 15 -8 0 -80 48 -87 58 -3 4 -29 23 -57 41 -29 18
-53 37 -53 42 0 5 -5 9 -10 9 -6 0 -33 16 -60 35 -27 19 -52 35 -55 35 -3 0
-27 15 -53 33 -46 31 -74 48 -117 72 -11 6 -40 24 -65 40 -47 30 -75 47 -122
72 -15 8 -30 18 -33 23 -3 5 -19 11 -35 15 -17 4 -30 10 -30 15 0 5 -16 14
-35 20 -19 6 -35 16 -35 21 0 5 -8 9 -19 9 -10 0 -29 8 -42 19 -13 10 -34 21
-46 25 -11 4 -27 13 -33 21 -7 8 -23 15 -35 15 -12 0 -28 7 -35 15 -7 8 -20
15 -29 15 -9 0 -33 9 -54 20 -20 11 -42 20 -48 20 -6 0 -22 9 -36 20 -14 11
-36 20 -48 20 -12 0 -28 7 -35 15 -7 8 -19 15 -27 15 -8 0 -29 7 -46 15 -36
16 -104 41 -157 57 -19 6 -44 17 -55 24 -11 8 -28 14 -38 14 -10 0 -31 6 -45
14 -33 18 -113 44 -169 56 -24 5 -56 16 -72 25 -17 8 -41 15 -54 15 -14 0 -44
9 -68 20 -24 11 -56 20 -70 20 -15 0 -43 7 -62 15 -20 8 -54 15 -76 15 -21 0
-68 9 -103 20 -34 11 -79 20 -99 20 -20 0 -56 7 -80 16 -24 8 -77 17 -116 19
-40 2 -98 11 -130 19 -32 7 -96 17 -143 20 -47 3 -101 11 -120 16 -19 6 -98
15 -175 20 -77 5 -185 14 -240 20 -111 12 -12992 20 -13024 8z m10039 -4204
c79 -39 130 -97 195 -219 57 -106 213 -339 270 -402 5 -6 26 -31 45 -54 108
-134 287 -311 430 -427 148 -119 445 -332 464 -332 3 0 20 -10 38 -23 19 -12
78 -45 133 -72 55 -28 102 -52 105 -55 11 -11 205 -100 218 -100 4 0 26 -13
49 -28 61 -41 110 -108 134 -184 21 -68 21 -68 4 -445 -8 -208 -20 -544 -25
-748 -5 -203 -14 -507 -19 -675 -6 -168 -15 -451 -21 -630 -29 -905 -26 -876
-93 -963 -38 -49 -167 -137 -200 -137 -5 0 -23 -7 -40 -15 -18 -8 -70 -30
-117 -49 -112 -45 -186 -78 -295 -132 -96 -48 -104 -52 -177 -101 -26 -18 -51
-33 -55 -33 -9 0 -87 -53 -91 -62 -2 -5 -8 -8 -12 -8 -10 0 -169 -111 -226
-157 -19 -16 -51 -41 -71 -58 -148 -120 -398 -371 -498 -500 -58 -74 -166
-231 -184 -266 -26 -52 -104 -130 -155 -156 -43 -22 -65 -26 -137 -27 -85 -1
-117 8 -222 60 -16 8 -33 14 -39 14 -6 0 -29 9 -52 19 -69 32 -114 51 -121 51
-3 0 -32 12 -63 26 -80 36 -89 40 -162 69 -36 15 -78 32 -95 39 -16 8 -61 26
-99 41 -38 15 -77 31 -85 36 -9 5 -45 20 -81 34 -36 14 -74 30 -85 35 -76 34
-115 50 -124 50 -5 0 -22 7 -38 15 -50 26 -142 65 -152 65 -5 0 -22 6 -38 14
-15 8 -53 24 -83 36 -30 13 -68 29 -85 36 -16 7 -75 31 -130 54 -55 23 -114
48 -132 56 -17 8 -34 14 -38 14 -5 0 -38 13 -120 50 -11 5 -54 23 -95 40 -41
17 -84 35 -95 40 -11 5 -49 21 -85 35 -36 15 -79 33 -97 41 -17 8 -35 14 -39
14 -4 0 -26 9 -48 19 -23 10 -59 27 -81 36 -22 9 -58 25 -81 36 -23 10 -46 19
-52 19 -6 0 -23 6 -39 14 -15 8 -53 24 -83 36 -30 12 -62 26 -71 30 -8 4 -47
20 -85 35 -69 27 -86 35 -176 74 -26 12 -50 21 -53 21 -4 0 -21 6 -38 14 -18
8 -66 29 -107 46 -41 17 -84 35 -95 40 -54 24 -116 49 -170 70 -33 12 -75 29
-93 36 -18 8 -39 14 -47 14 -8 0 -15 4 -15 9 0 5 -15 14 -32 21 -18 6 -51 20
-74 31 -23 10 -46 19 -52 19 -6 0 -23 6 -39 14 -55 28 -123 56 -137 56 -8 0
-17 4 -21 9 -3 5 -22 15 -43 21 -31 10 -113 44 -217 90 -11 5 -49 21 -85 35
-36 14 -72 29 -81 34 -8 5 -47 21 -85 36 -63 25 -98 40 -189 80 -16 7 -61 25
-100 40 -38 15 -74 30 -80 34 -5 4 -37 17 -70 30 -33 12 -78 31 -101 42 -23
10 -46 19 -52 19 -6 0 -23 6 -39 14 -15 8 -73 33 -128 56 -55 23 -112 48 -127
56 -14 8 -31 14 -38 14 -10 0 -46 15 -135 55 -16 7 -59 25 -95 40 -36 14 -74
30 -85 35 -11 5 -49 21 -85 35 -36 14 -74 30 -85 35 -11 5 -69 29 -130 55 -60
25 -119 50 -130 55 -11 5 -49 21 -85 35 -36 15 -79 33 -97 41 -17 8 -36 14
-41 14 -6 0 -23 7 -39 15 -50 25 -114 52 -275 116 -29 11 -66 26 -83 34 -39
17 -84 37 -165 69 -36 15 -74 31 -85 36 -11 5 -49 21 -85 35 -36 14 -74 30
-85 35 -11 5 -54 23 -95 40 -41 17 -84 35 -95 40 -89 39 -115 50 -125 50 -7 0
-24 6 -38 14 -15 8 -72 34 -127 56 -55 23 -118 50 -141 61 -23 10 -46 19 -52
19 -6 0 -23 6 -39 14 -15 8 -53 24 -83 36 -30 12 -62 26 -71 30 -8 4 -47 20
-85 35 -38 15 -87 35 -109 45 -22 9 -56 23 -74 31 -77 31 -137 68 -151 92 -8
14 -12 28 -10 31 6 5 454 -7 1110 -30 245 -8 605 -19 800 -24 195 -5 492 -14
660 -19 292 -11 541 -18 1315 -41 193 -6 544 -17 780 -25 237 -8 530 -18 652
-21 143 -5 226 -11 232 -18 5 -6 17 -36 26 -66 30 -101 116 -252 183 -324 52
-54 177 -147 242 -178 118 -56 193 -71 355 -72 144 -1 154 0 250 32 103 34
124 44 218 100 82 48 214 192 265 289 23 44 42 87 42 94 0 8 6 26 14 41 8 14
17 46 20 70 4 24 12 72 18 108 12 79 -10 274 -42 360 -49 133 -93 203 -185
295 -100 100 -235 195 -278 195 -8 0 -34 9 -58 19 -129 56 -399 54 -536 -5
-97 -42 -132 -60 -188 -97 -66 -44 -190 -167 -200 -197 -4 -11 -10 -20 -14
-20 -10 0 -81 -141 -100 -198 l-16 -47 -260 3 c-143 2 -438 9 -655 18 -217 8
-561 19 -765 24 -203 5 -509 14 -680 20 -505 16 -927 29 -1305 40 -195 6 -474
15 -620 20 -146 6 -488 15 -760 22 -272 6 -499 15 -504 19 -18 16 17 58 69 84
29 14 55 25 58 25 3 0 18 5 34 12 15 6 46 17 68 24 22 7 119 40 215 74 96 33
189 65 205 70 59 17 130 42 162 56 17 8 36 14 43 14 7 0 26 6 43 14 18 8 48
19 67 25 45 13 239 79 265 90 21 10 101 36 150 51 17 5 89 29 160 55 72 25
166 57 210 71 44 14 94 32 112 40 17 8 37 14 45 14 7 0 26 7 42 15 16 9 46 20
65 25 44 11 129 39 156 51 11 5 61 22 110 38 50 17 169 58 265 91 96 34 189
65 205 70 17 5 89 29 160 54 72 26 218 76 325 111 107 36 204 70 215 75 11 5
83 30 160 55 77 25 147 48 155 52 27 11 321 111 520 178 107 36 204 70 215 75
11 5 83 30 160 55 77 25 149 50 160 55 11 5 31 12 45 15 14 4 39 13 55 19 17
7 62 23 100 36 39 12 75 26 80 30 6 4 33 13 60 19 28 7 59 18 70 25 11 8 36
17 55 21 19 4 40 11 45 15 6 4 30 12 55 18 48 11 132 38 165 53 11 5 83 29
160 54 77 25 154 53 172 61 17 7 36 14 43 14 7 0 26 6 43 14 18 8 73 27 122
42 50 15 97 31 105 35 8 5 98 36 200 69 102 34 199 68 217 76 17 8 36 14 43
14 6 0 32 9 58 19 26 10 81 29 122 42 41 12 82 26 90 31 21 11 217 77 263 89
21 5 45 13 55 19 9 5 60 23 112 40 52 17 104 35 115 39 11 5 56 21 100 35 44
14 112 37 150 51 39 15 84 30 100 35 36 10 94 30 325 110 96 34 189 65 205 70
45 14 147 49 170 60 11 5 56 20 100 34 44 14 105 35 135 45 68 25 154 19 220
-15z m4120 -1886 c58 -24 60 -25 101 -61 46 -39 78 -91 93 -152 17 -62 16
-108 -14 -1020 -6 -165 -14 -451 -20 -635 -5 -184 -15 -474 -21 -645 -6 -170
-14 -420 -18 -555 -6 -210 -10 -251 -26 -285 -31 -63 -70 -109 -131 -151 -55
-38 -59 -39 -138 -38 -54 0 -103 8 -146 22 -133 43 -323 82 -520 107 -194 24
-186 22 -256 88 -102 95 -105 106 -104 392 0 132 7 393 15 580 8 187 17 462
20 610 3 149 10 380 16 515 6 135 14 394 19 575 10 377 13 395 91 476 76 78
111 90 284 99 217 12 428 43 565 85 68 20 128 18 190 -7z"/>
<path d="M14020 4288 c-27 -10 -40 -40 -40 -94 0 -26 -9 -81 -21 -122 -33
-120 -46 -114 236 -113 180 0 242 4 251 13 15 16 34 96 34 142 0 19 8 61 19
94 10 33 15 65 11 72 -8 13 -457 20 -490 8z"/>
<path d="M27778 4283 c-17 -21 -38 -105 -38 -153 0 -26 -7 -67 -15 -90 -30
-86 -47 -80 234 -80 288 0 281 -2 281 84 0 30 7 72 14 95 15 42 24 136 14 146
-3 3 -112 7 -243 8 -174 1 -239 -1 -247 -10z"/>
<path d="M28875 4290 c-132 -3 -246 -9 -252 -13 -8 -5 -13 -31 -13 -66 0 -32
-6 -76 -13 -97 -8 -22 -17 -72 -21 -112 -3 -41 -11 -83 -17 -94 -6 -10 -14
-58 -19 -106 -5 -49 -16 -107 -25 -131 -8 -24 -15 -65 -15 -91 0 -26 -6 -65
-13 -86 -8 -22 -17 -71 -20 -110 -4 -39 -14 -90 -22 -114 -8 -23 -15 -63 -15
-89 0 -25 -9 -75 -20 -111 -11 -36 -20 -86 -20 -111 0 -26 -6 -64 -13 -85 -8
-22 -17 -71 -20 -110 -4 -39 -14 -90 -22 -114 -8 -23 -15 -64 -15 -90 0 -26
-9 -75 -20 -109 -12 -34 -18 -66 -15 -71 8 -13 480 -13 504 0 14 7 20 27 26
77 3 37 13 90 21 117 8 27 14 66 14 86 0 20 9 70 20 111 11 41 20 92 20 115 0
22 6 63 14 90 8 27 17 76 20 109 4 33 13 82 21 109 8 27 15 66 15 86 0 20 9
70 20 111 11 41 20 93 20 116 0 23 5 54 11 69 5 16 14 64 20 109 5 44 16 100
23 125 8 25 17 74 20 110 3 36 12 85 20 109 9 24 16 65 16 91 0 26 7 67 15 90
18 52 19 77 3 81 -7 2 -121 2 -253 -1z"/>
<path d="M29484 4270 c-4 -14 -13 -47 -21 -75 -8 -27 -17 -77 -19 -110 -3 -33
-11 -82 -19 -109 -8 -27 -15 -66 -15 -86 0 -20 -9 -70 -20 -111 -11 -41 -20
-93 -20 -116 0 -23 -5 -54 -11 -70 -6 -15 -15 -66 -21 -112 -5 -46 -16 -102
-24 -124 -8 -22 -14 -57 -14 -78 0 -21 -9 -75 -20 -121 -11 -46 -20 -100 -20
-120 0 -20 -5 -49 -11 -65 -6 -15 -15 -62 -19 -104 -5 -42 -16 -98 -24 -123
-9 -26 -16 -66 -16 -90 0 -23 -6 -65 -14 -92 -8 -27 -16 -80 -18 -119 l-3 -70
243 -3 242 -2 9 22 c23 60 41 139 41 181 0 25 5 58 11 74 6 15 15 64 20 108 4
44 15 100 24 124 8 24 15 65 15 91 0 26 7 69 15 96 9 27 18 77 21 111 2 34 11
81 19 104 8 23 15 63 15 89 0 27 9 77 20 112 11 34 20 83 20 108 0 25 7 66 15
92 8 26 16 76 19 110 3 35 12 83 21 107 8 24 15 65 15 91 0 26 7 69 15 96 9
27 18 72 21 99 2 28 7 57 10 66 10 35 -18 40 -260 42 l-237 2 -5 -25z"/>
<path d="M30346 4283 c-20 -11 -24 -23 -30 -85 -4 -40 -14 -94 -22 -120 -8
-26 -14 -63 -12 -83 l3 -37 239 1 c289 1 273 -6 286 127 5 49 16 109 24 133
27 74 30 73 -233 75 -165 1 -239 -3 -255 -11z"/>
<path d="M5546 4147 c-3 -30 -13 -73 -21 -97 -8 -23 -15 -64 -15 -91 0 -26 -5
-60 -10 -74 -6 -15 -17 -71 -25 -125 -8 -54 -19 -110 -25 -125 -5 -14 -10 -45
-10 -68 0 -23 -9 -75 -20 -115 -11 -39 -20 -89 -20 -110 0 -21 -7 -61 -15 -88
-8 -27 -15 -65 -15 -85 0 -19 -9 -69 -20 -110 -11 -41 -20 -92 -20 -114 0 -22
-9 -72 -20 -110 -11 -38 -20 -86 -20 -105 0 -19 -6 -64 -14 -100 -17 -73 -37
-192 -39 -230 l-2 -25 781 -3 c618 -2 784 1 797 11 13 9 20 36 27 97 5 47 13
99 19 115 8 26 18 94 24 175 l2 25 -500 5 -500 5 2 25 c12 123 35 233 55 258
8 9 105 12 422 12 307 0 415 3 424 12 7 7 12 33 12 58 0 25 7 70 15 100 23 79
35 202 23 217 -8 10 -108 13 -417 15 l-406 3 -3 35 c-2 19 3 60 12 90 9 30 17
71 18 90 5 61 1 60 527 59 514 0 490 -3 491 56 0 17 7 52 15 79 8 27 15 68 15
91 0 23 7 64 15 91 8 27 15 61 15 77 l0 27 -784 0 -783 0 -7 -53z"/>
<path d="M22497 4193 c-4 -3 -7 -20 -7 -37 0 -17 -6 -51 -14 -76 -7 -25 -16
-79 -20 -120 -4 -41 -12 -83 -18 -94 -6 -11 -15 -56 -19 -101 -5 -44 -15 -100
-24 -124 -8 -24 -15 -65 -15 -91 0 -26 -6 -65 -13 -86 -8 -22 -17 -71 -20
-110 -4 -39 -14 -90 -22 -114 -8 -23 -15 -64 -15 -90 0 -27 -9 -77 -20 -112
-11 -34 -20 -84 -20 -109 0 -26 -6 -64 -13 -85 -8 -22 -17 -71 -20 -110 -4
-39 -14 -90 -22 -114 -8 -23 -15 -64 -15 -91 0 -27 -7 -67 -16 -89 -29 -72
-37 -70 263 -70 147 0 274 4 282 9 19 12 41 85 41 136 0 22 5 56 10 75 6 19
17 78 25 131 8 54 19 109 25 124 5 14 10 41 10 58 0 60 -8 58 295 57 351 -1
435 13 570 93 97 57 246 212 260 269 4 15 13 32 21 39 8 6 14 21 14 33 0 12
10 42 22 67 19 39 21 61 22 204 0 145 -2 164 -22 207 -12 26 -22 53 -22 61 0
8 -7 20 -15 27 -8 7 -15 18 -15 25 0 17 -90 115 -107 115 -7 0 -16 6 -19 14
-3 8 -17 17 -32 21 -15 4 -34 13 -43 21 -9 8 -36 17 -59 20 -24 3 -51 9 -61
15 -20 10 -1142 13 -1152 2z m894 -431 c43 -26 79 -94 79 -148 0 -57 -57 -161
-109 -201 l-43 -33 -183 0 c-213 0 -217 2 -197 76 7 24 12 61 12 81 0 20 6 62
14 92 8 31 18 76 23 101 10 57 18 59 213 57 140 -2 158 -5 191 -25z"/>
<path d="M13491 3795 c-18 -8 -41 -15 -51 -15 -9 0 -29 -9 -43 -20 -14 -11
-32 -20 -40 -20 -15 0 -130 -106 -165 -154 -38 -50 -51 -30 -54 86 l-3 103
-199 3 c-208 3 -232 -2 -221 -39 4 -11 -3 -55 -14 -99 -12 -44 -21 -96 -21
-117 0 -21 -9 -71 -20 -112 -11 -41 -20 -91 -20 -110 0 -20 -7 -58 -15 -85 -8
-27 -15 -66 -15 -86 0 -20 -9 -70 -20 -111 -11 -41 -20 -92 -20 -115 0 -22 -6
-63 -14 -90 -8 -27 -17 -78 -21 -114 -3 -36 -13 -84 -21 -108 -8 -23 -14 -62
-14 -85 0 -23 -5 -59 -11 -81 -8 -31 -8 -41 3 -47 7 -5 120 -9 251 -9 182 0
238 3 241 13 20 65 40 165 47 227 4 41 15 97 23 124 9 27 16 68 16 91 0 23 7
64 15 91 8 27 15 67 15 89 0 23 9 58 20 80 11 22 20 45 20 53 0 24 93 142 113
142 5 0 20 9 34 20 14 11 36 20 48 20 12 0 39 7 58 15 25 10 71 15 142 15 76
0 107 3 109 13 22 82 28 113 36 178 4 42 15 100 24 129 21 70 20 99 -1 106
-10 3 -30 12 -45 20 -34 18 -123 17 -167 -1z"/>
<path d="M9965 3790 c-22 -5 -53 -11 -69 -14 -15 -3 -39 -12 -52 -21 -13 -8
-29 -15 -37 -15 -19 0 -105 -66 -155 -120 -39 -41 -44 -44 -56 -28 -7 10 -16
52 -20 95 -3 44 -11 80 -19 85 -6 4 -97 7 -202 5 l-190 -2 -13 -28 c-8 -16
-18 -65 -22 -110 -5 -45 -13 -98 -18 -117 -6 -19 -13 -66 -17 -105 -4 -38 -11
-78 -17 -88 -5 -10 -14 -58 -19 -108 -6 -49 -17 -108 -25 -131 -8 -22 -14 -61
-14 -87 0 -26 -9 -79 -20 -118 -11 -40 -17 -79 -14 -87 3 -8 -4 -51 -15 -95
-12 -44 -21 -98 -21 -119 0 -21 -7 -61 -15 -88 -9 -27 -18 -76 -21 -109 -3
-33 -11 -82 -19 -110 -7 -27 -15 -79 -18 -115 -3 -36 -12 -83 -20 -106 -8 -22
-16 -78 -18 -125 l-4 -84 247 -3 247 -2 6 47 c4 27 13 71 21 100 8 28 14 68
14 90 0 21 9 71 20 111 11 39 20 87 20 107 0 52 41 205 55 205 7 0 28 -17 47
-38 46 -51 90 -75 178 -98 87 -22 242 -25 277 -6 12 7 48 15 79 17 32 3 65 11
73 18 9 7 38 23 64 36 50 24 185 151 209 196 7 13 26 50 42 82 16 32 37 74 47
94 10 20 16 38 13 41 -2 3 4 29 16 57 11 28 20 66 20 84 0 18 9 65 20 106 27
101 26 227 -1 340 -22 89 -65 191 -80 191 -5 0 -9 6 -9 14 0 21 -77 85 -130
108 -101 45 -274 67 -365 48z m-3 -390 c46 -27 74 -71 82 -130 8 -57 -10 -229
-30 -275 -8 -19 -14 -47 -14 -63 0 -16 -7 -35 -15 -42 -8 -6 -17 -21 -21 -32
-3 -12 -31 -45 -62 -75 l-56 -53 -95 -1 c-53 -1 -103 -1 -111 1 -29 3 -83 68
-101 121 -23 64 -24 115 -4 189 8 30 15 68 15 84 0 26 16 69 58 151 28 57 104
120 177 147 38 14 138 2 177 -22z"/>
<path d="M11525 3790 c-22 -4 -72 -10 -111 -13 -40 -3 -86 -12 -102 -21 -17
-9 -44 -16 -60 -16 -16 0 -35 -6 -41 -14 -7 -8 -26 -18 -42 -21 -16 -4 -31
-11 -35 -16 -3 -5 -20 -16 -39 -23 -34 -14 -195 -161 -195 -177 0 -5 -16 -32
-35 -59 -19 -27 -35 -56 -35 -64 0 -7 -7 -19 -15 -26 -8 -7 -15 -20 -15 -29 0
-9 -9 -43 -20 -76 -28 -88 -43 -216 -37 -330 7 -136 20 -202 51 -255 14 -25
30 -54 35 -65 10 -22 83 -93 116 -112 105 -61 155 -80 285 -104 134 -25 318
-35 390 -20 30 6 84 16 120 22 36 6 79 17 97 25 17 8 38 14 46 14 17 0 78 31
143 72 59 38 160 152 190 217 15 31 33 68 40 83 16 30 18 85 4 90 -5 2 -117 1
-247 -2 l-238 -5 -3 -27 c-2 -15 -25 -50 -55 -82 -46 -50 -60 -58 -125 -77
-85 -24 -169 -22 -244 6 -68 25 -90 55 -119 165 -10 41 -2 117 15 128 6 4 247
9 536 12 l525 5 8 65 c16 139 19 271 8 313 -6 23 -13 55 -15 71 -3 15 -12 39
-21 52 -8 13 -15 29 -15 37 0 22 -133 149 -176 168 -23 9 -45 22 -48 28 -4 6
-18 11 -30 11 -13 0 -39 7 -59 15 -19 8 -62 17 -95 20 -32 3 -74 10 -93 15
-39 11 -185 11 -244 0z m165 -321 c61 -18 115 -70 129 -125 16 -61 14 -81 -9
-104 -19 -19 -33 -20 -258 -20 -241 0 -262 3 -262 37 0 32 85 132 145 172 40
26 166 62 195 56 8 -2 35 -9 60 -16z"/>
<path d="M15355 3790 c-22 -5 -67 -9 -100 -10 -37 0 -77 -8 -104 -20 -24 -11
-52 -20 -63 -20 -35 0 -183 -79 -239 -127 -62 -53 -135 -141 -164 -198 -11
-22 -24 -43 -30 -47 -12 -9 -45 -102 -54 -158 -5 -25 -16 -72 -25 -105 -23
-87 -22 -255 4 -331 11 -32 20 -65 20 -73 1 -51 92 -173 164 -219 109 -71 147
-85 296 -115 123 -24 381 -30 440 -10 19 7 59 15 87 17 29 3 63 12 75 20 12 9
34 16 48 16 14 0 36 7 49 17 13 9 43 26 67 39 49 26 174 142 174 162 0 6 4 12
9 12 5 0 16 18 24 39 9 22 21 42 27 46 5 3 10 15 10 26 0 11 9 38 21 60 13 27
17 44 10 52 -7 9 -72 11 -246 7 l-237 -5 -25 -48 c-38 -71 -98 -119 -176 -140
-78 -21 -173 -22 -207 -2 -14 8 -34 14 -44 15 -22 0 -76 47 -76 66 0 6 -7 17
-15 24 -22 19 -22 195 1 204 9 3 246 6 529 6 462 0 514 2 526 16 11 13 14 64
14 223 0 195 -1 208 -22 246 -13 22 -23 44 -23 48 0 31 -126 154 -189 184 -14
7 -33 17 -41 22 -70 42 -414 82 -515 61z m164 -323 c28 -7 59 -26 87 -54 42
-40 44 -45 44 -98 0 -100 14 -95 -255 -95 -128 0 -240 3 -249 6 -23 9 -20 59
7 96 26 37 77 85 121 113 39 24 154 56 181 49 11 -3 40 -11 64 -17z"/>
<path d="M17375 3781 c-75 -15 -112 -28 -160 -54 -11 -6 -33 -17 -49 -25 -16
-8 -59 -44 -97 -79 -43 -41 -74 -63 -84 -60 -11 5 -15 29 -17 109 l-3 103
-204 0 -203 0 -19 -70 c-10 -38 -19 -86 -19 -106 0 -19 -9 -69 -20 -110 -11
-41 -20 -92 -20 -115 0 -22 -7 -63 -15 -90 -8 -27 -15 -65 -15 -85 0 -19 -9
-69 -20 -110 -11 -41 -20 -92 -20 -114 0 -22 -9 -72 -20 -110 -11 -38 -20 -91
-20 -116 0 -26 -6 -64 -13 -85 -8 -22 -17 -71 -20 -110 -4 -39 -14 -91 -22
-115 -9 -24 -13 -49 -11 -56 7 -17 476 -19 507 -3 15 8 19 21 19 58 0 26 9 79
20 117 11 38 20 88 20 111 0 22 7 63 15 90 8 27 15 64 15 83 0 19 9 73 19 120
11 47 25 115 30 151 19 118 36 163 81 213 60 68 109 96 178 103 70 8 106 -7
150 -64 27 -34 31 -46 31 -102 0 -34 -9 -95 -20 -134 -10 -39 -19 -89 -19
-111 0 -22 -7 -64 -14 -93 -8 -29 -18 -83 -22 -120 -4 -37 -13 -84 -20 -106
-8 -21 -14 -57 -14 -80 0 -23 -8 -69 -17 -101 -9 -33 -17 -78 -17 -100 l-1
-40 240 -3 c183 -2 245 1 258 10 13 10 20 37 27 104 5 49 16 109 25 133 8 24
15 64 15 90 0 25 9 78 20 116 11 38 20 91 20 116 0 26 7 66 15 89 8 23 15 61
15 84 0 23 9 75 21 116 17 62 20 97 17 208 -2 73 -7 136 -13 140 -5 4 -21 28
-34 54 -13 26 -38 58 -55 71 -121 91 -259 116 -441 78z"/>
<path d="M18910 3789 c-30 -4 -73 -10 -95 -12 -45 -6 -177 -47 -185 -58 -3 -4
-19 -11 -35 -15 -17 -4 -39 -13 -50 -20 -11 -8 -25 -14 -32 -14 -16 0 -106
-63 -151 -104 -18 -17 -51 -60 -75 -96 -23 -36 -45 -66 -49 -68 -5 -2 -8 -9
-8 -15 0 -7 -11 -33 -25 -59 -14 -26 -25 -58 -25 -71 0 -13 -8 -39 -17 -58
-15 -29 -18 -64 -18 -244 0 -184 2 -213 18 -235 9 -13 17 -32 17 -42 0 -15 33
-73 60 -105 5 -7 10 -15 10 -18 0 -7 68 -75 75 -75 3 0 11 -5 18 -10 34 -29
90 -60 108 -60 11 0 30 -6 42 -14 12 -8 45 -17 72 -20 28 -4 72 -14 99 -23 40
-13 75 -15 175 -10 69 4 144 11 166 16 22 5 65 12 96 14 32 2 67 12 80 21 13
9 34 16 46 16 28 0 133 50 179 85 18 14 35 25 39 25 22 0 175 195 175 225 0 8
9 29 19 47 11 18 21 56 23 83 l3 50 -232 3 c-217 2 -233 1 -233 -15 -1 -32
-45 -110 -82 -145 -59 -55 -128 -78 -234 -78 -80 0 -97 3 -139 26 -29 17 -57
44 -76 73 -25 40 -29 56 -29 122 0 44 8 106 20 150 11 41 20 88 20 106 0 29
10 58 44 132 18 40 104 115 154 135 73 29 141 31 219 6 85 -27 133 -78 134
-144 1 -82 -14 -77 248 -77 182 0 236 3 242 13 5 7 9 56 9 108 -1 73 -5 104
-20 135 -11 22 -19 45 -20 50 0 18 -92 116 -134 143 -56 36 -128 71 -146 72
-8 0 -28 7 -45 16 -16 9 -63 18 -104 20 -41 3 -82 9 -92 14 -21 12 -180 11
-259 -1z"/>
<path d="M20705 3790 c-22 -5 -67 -9 -100 -10 -37 0 -77 -8 -104 -20 -24 -11
-52 -20 -64 -20 -23 0 -123 -45 -132 -60 -3 -6 -13 -10 -22 -10 -22 0 -116
-82 -171 -151 -68 -83 -82 -102 -82 -112 0 -5 -9 -20 -20 -34 -11 -14 -20 -35
-20 -47 0 -11 -7 -30 -15 -40 -8 -11 -15 -33 -15 -48 0 -16 -9 -54 -20 -85
-17 -48 -20 -82 -20 -208 1 -111 5 -160 16 -190 9 -22 18 -53 21 -70 3 -16 11
-35 18 -40 6 -6 15 -19 19 -31 12 -37 145 -163 173 -164 4 0 19 -9 33 -20 14
-11 33 -20 43 -20 10 0 36 -9 58 -21 23 -11 47 -18 53 -16 7 3 44 -1 82 -9
119 -24 317 -29 409 -11 44 9 96 19 115 21 19 2 49 12 65 20 17 9 36 16 43 16
23 0 95 43 171 103 70 54 161 161 161 189 0 7 7 22 15 32 8 11 15 31 15 45 0
14 7 35 15 45 34 45 30 46 -231 46 l-245 0 -20 -44 c-17 -40 -45 -74 -96 -116
-33 -28 -146 -52 -215 -47 -98 7 -164 38 -200 97 -22 38 -32 204 -13 220 7 6
225 11 530 12 l518 3 14 40 c10 28 15 90 15 210 l1 170 -38 79 c-36 77 -116
176 -142 176 -7 0 -13 5 -13 10 0 6 -12 15 -27 21 -16 5 -41 16 -58 23 -50 23
-146 49 -215 59 -96 13 -259 17 -305 7z m153 -320 c37 -12 76 -29 87 -38 39
-32 65 -87 65 -135 0 -77 1 -77 -265 -77 -128 0 -240 3 -249 6 -33 12 -18 61
37 126 68 80 108 102 255 137 2 1 34 -8 70 -19z"/>
<path d="M24665 3790 c-22 -5 -57 -9 -78 -9 -61 -1 -190 -74 -273 -156 -39
-38 -78 -83 -87 -100 -9 -16 -22 -41 -29 -55 -7 -14 -18 -31 -25 -38 -7 -7
-13 -22 -13 -32 0 -11 -9 -34 -20 -52 -11 -18 -20 -43 -20 -54 0 -12 -9 -41
-20 -65 -11 -24 -20 -62 -20 -84 0 -22 -7 -65 -15 -95 -23 -85 -20 -255 7
-354 12 -44 27 -88 33 -96 7 -8 16 -25 20 -38 9 -30 118 -138 147 -147 13 -4
30 -13 38 -20 8 -7 68 -23 132 -36 106 -21 123 -22 175 -10 32 7 79 17 105 21
26 5 68 24 97 44 28 20 55 36 60 36 6 0 14 6 18 13 11 18 98 87 109 87 5 0 20
-23 33 -51 27 -56 104 -129 137 -129 11 0 29 -7 40 -15 29 -22 152 -18 267 9
126 29 137 39 147 142 5 44 14 91 21 107 15 33 13 35 -36 41 -21 3 -50 14 -64
24 -23 17 -26 27 -29 91 -2 49 3 94 18 144 11 40 20 91 20 114 0 22 7 62 15
89 8 27 15 65 15 84 0 20 9 68 20 108 11 39 20 87 20 106 0 19 9 63 20 98 11
34 20 81 20 104 0 22 7 62 16 87 27 79 31 78 -192 75 l-197 -3 -48 -70 c-27
-38 -54 -78 -61 -87 -24 -35 -40 -29 -95 31 -80 89 -131 120 -217 132 -120 16
-169 18 -211 9z m274 -366 c17 -4 50 -23 74 -44 33 -30 46 -52 61 -101 19 -61
19 -66 3 -145 -9 -45 -17 -96 -17 -113 0 -18 -7 -46 -16 -62 -8 -17 -17 -39
-19 -49 -4 -20 -35 -68 -70 -108 -11 -13 -42 -36 -70 -51 -47 -27 -55 -28
-135 -23 -78 4 -88 8 -127 39 -35 29 -44 43 -54 91 -9 43 -9 70 0 113 6 30 11
72 11 92 0 20 6 56 14 79 8 24 18 60 21 81 4 20 11 37 16 37 5 0 9 7 9 15 0 9
19 36 42 61 70 76 161 107 257 88z"/>
<path d="M31739 3796 c-2 -3 -54 -9 -114 -15 -61 -5 -127 -17 -147 -25 -21 -9
-49 -16 -64 -16 -14 0 -37 -9 -51 -20 -14 -11 -34 -20 -43 -20 -10 0 -23 -7
-30 -15 -7 -8 -18 -15 -26 -15 -21 0 -129 -92 -178 -151 -24 -30 -55 -75 -69
-100 -13 -26 -31 -57 -40 -70 -10 -13 -17 -35 -17 -49 0 -14 -7 -34 -15 -44
-8 -11 -15 -37 -15 -58 0 -21 -7 -55 -16 -76 -11 -24 -18 -77 -22 -154 -4 -99
-1 -127 17 -186 11 -39 21 -76 21 -83 0 -7 10 -33 21 -57 23 -47 159 -192 180
-192 7 0 20 -6 28 -14 21 -19 92 -44 171 -61 36 -8 81 -19 100 -24 44 -14 240
-13 300 0 25 5 74 13 110 18 36 4 80 16 97 25 18 9 42 16 55 16 13 0 37 9 53
20 17 11 36 20 43 20 29 0 242 178 242 203 0 4 16 30 35 57 19 27 35 54 35 60
0 6 9 27 20 47 11 21 20 45 20 53 0 9 4 20 10 26 14 14 50 235 50 306 0 73
-25 213 -46 250 -7 14 -14 31 -14 37 0 14 -53 91 -92 133 -36 38 -166 118
-193 118 -9 0 -30 7 -47 16 -17 9 -55 18 -85 20 -30 3 -66 9 -79 15 -25 9
-196 13 -205 5z m115 -357 c35 -14 69 -36 91 -60 l35 -39 0 -124 c0 -96 -5
-139 -20 -188 -11 -34 -20 -74 -20 -88 0 -14 -9 -44 -20 -65 -44 -88 -71 -117
-145 -155 -52 -26 -70 -30 -142 -30 -88 0 -138 17 -181 63 -40 42 -65 145 -51
205 5 20 14 70 19 111 12 89 35 171 63 230 22 42 101 121 123 121 7 0 31 9 55
20 57 26 124 25 193 -1z"/>
<path d="M33710 3783 c-47 -8 -92 -21 -101 -29 -8 -8 -24 -14 -33 -14 -10 0
-29 -9 -43 -20 -14 -11 -32 -20 -39 -20 -7 0 -46 -32 -86 -70 -40 -39 -80 -69
-88 -67 -12 2 -15 21 -15 97 -1 52 -4 101 -8 108 -6 9 -59 12 -207 12 l-200 0
-5 -27 c-3 -16 -12 -54 -20 -85 -8 -32 -15 -73 -15 -91 0 -18 -9 -67 -20 -108
-11 -41 -20 -92 -20 -115 0 -22 -7 -63 -15 -90 -9 -27 -18 -77 -21 -111 -2
-34 -11 -84 -19 -110 -8 -26 -15 -66 -15 -88 0 -22 -9 -72 -20 -110 -11 -38
-20 -88 -20 -111 0 -22 -7 -65 -16 -95 -9 -30 -16 -67 -15 -84 1 -37 -18 -126
-32 -142 -6 -9 -5 -18 3 -28 10 -13 52 -15 254 -15 175 0 245 3 254 12 7 7 12
30 12 53 0 22 9 72 20 110 11 38 20 88 20 111 0 22 7 64 16 93 8 30 17 78 20
108 2 30 11 78 19 106 8 28 15 66 15 85 0 45 36 189 57 227 22 41 59 80 113
117 40 29 52 32 118 32 l73 1 45 -47 c44 -47 44 -47 44 -121 0 -41 -9 -108
-20 -152 -11 -43 -20 -97 -20 -119 0 -23 -9 -70 -20 -106 -11 -36 -20 -85 -20
-110 0 -25 -7 -67 -15 -94 -8 -27 -15 -65 -15 -84 0 -20 -9 -71 -21 -114 -12
-43 -19 -85 -15 -93 5 -13 41 -15 244 -15 181 0 242 3 256 13 13 10 20 35 27
93 4 43 15 101 24 128 8 27 15 68 15 91 0 23 7 64 15 92 8 28 17 78 20 110 3
33 12 82 20 109 8 27 15 67 15 89 0 22 9 73 20 113 15 55 20 102 20 206 0 126
-2 137 -27 187 -51 98 -116 147 -245 183 -68 19 -154 19 -268 -1z"/>
<path d="M7290 3761 c0 -11 5 -23 11 -26 5 -4 15 -17 20 -28 6 -12 21 -40 34
-62 14 -22 32 -53 40 -70 9 -16 31 -57 50 -90 19 -33 42 -73 50 -90 9 -16 27
-48 41 -70 13 -22 31 -54 39 -72 8 -17 18 -33 22 -35 15 -6 53 -87 53 -110 0
-17 -49 -76 -171 -203 -94 -99 -215 -227 -268 -284 -53 -57 -124 -133 -159
-169 -34 -35 -60 -68 -56 -73 3 -5 125 -9 278 -9 l273 0 49 53 c27 29 69 76
94 106 66 79 173 204 187 219 7 7 13 18 13 23 0 5 11 11 25 15 30 7 55 -10 55
-38 0 -11 9 -31 20 -45 11 -14 20 -32 20 -39 0 -8 9 -31 20 -51 11 -21 20 -43
20 -49 0 -6 7 -17 15 -24 8 -7 15 -23 15 -36 0 -12 7 -29 15 -38 8 -8 18 -29
22 -46 4 -21 14 -35 30 -41 31 -11 523 -12 541 0 11 7 9 16 -10 47 -14 22 -28
46 -32 54 -4 8 -18 33 -31 55 -14 22 -32 54 -40 72 -8 17 -18 33 -22 35 -5 1
-21 28 -36 58 -42 80 -61 114 -68 120 -3 3 -19 30 -36 60 -17 30 -39 69 -49
87 -52 86 -74 127 -74 136 0 6 48 61 108 121 59 61 163 170 232 242 69 72 160
168 203 213 43 44 75 86 72 91 -4 6 -107 10 -271 10 -264 0 -265 0 -287 -23
-28 -30 -180 -215 -238 -289 -24 -32 -49 -58 -55 -58 -12 0 -54 42 -54 55 0 8
-36 89 -51 115 -5 8 -14 26 -20 40 -6 14 -17 37 -25 52 -8 14 -14 33 -14 41 0
8 -11 26 -25 41 l-24 26 -276 0 c-266 0 -275 -1 -275 -19z"/>
<path d="M13917 3773 c-4 -3 -7 -18 -7 -32 0 -14 -9 -58 -20 -96 -11 -38 -20
-88 -20 -110 0 -22 -7 -62 -15 -89 -8 -27 -15 -66 -15 -86 0 -20 -9 -70 -20
-111 -11 -41 -20 -92 -20 -114 0 -22 -9 -71 -19 -108 -11 -38 -18 -74 -15 -82
3 -8 -4 -50 -15 -94 -12 -44 -21 -98 -21 -119 0 -21 -7 -61 -15 -88 -9 -27
-20 -87 -25 -132 -5 -46 -14 -90 -21 -98 -9 -11 -9 -17 1 -29 10 -13 52 -15
254 -15 175 0 245 3 254 12 7 7 12 32 12 58 0 25 9 74 19 108 11 35 17 70 15
77 -3 7 4 52 15 100 12 47 21 101 21 118 0 18 7 57 15 87 9 30 18 80 21 110 3
30 12 80 20 111 8 31 14 72 14 91 0 18 9 66 20 106 11 39 20 88 20 107 0 20 6
64 14 98 28 125 38 210 24 219 -15 9 -482 11 -491 1z"/>
<path d="M25897 3767 c-6 -16 7 -89 22 -130 6 -16 11 -45 11 -65 0 -21 9 -63
20 -95 11 -31 20 -76 20 -99 1 -24 7 -61 15 -83 8 -22 15 -56 15 -75 0 -19 9
-64 20 -98 11 -35 20 -80 20 -101 0 -20 9 -63 21 -96 11 -32 18 -67 15 -78 -2
-11 4 -47 15 -81 10 -33 19 -77 19 -97 0 -20 7 -56 16 -80 9 -24 20 -78 25
-119 6 -52 14 -79 26 -87 12 -10 84 -13 275 -13 l258 0 12 25 c6 14 15 25 20
25 4 0 8 8 8 18 0 11 9 27 20 37 11 10 20 26 20 36 0 10 5 21 11 25 6 3 18 21
25 38 8 17 26 49 39 71 13 22 31 54 39 70 8 17 31 57 50 90 20 33 42 74 51 90
8 17 26 48 39 70 14 22 32 54 41 70 8 17 31 57 50 90 19 33 41 74 50 90 8 17
26 48 40 70 13 22 27 47 30 55 4 8 11 22 16 30 5 8 15 26 21 40 7 14 18 31 25
38 7 7 13 20 13 27 0 7 6 20 13 27 7 7 18 24 25 38 7 14 23 43 37 65 13 22 27
47 30 55 4 8 11 22 16 30 29 49 39 72 34 80 -4 6 -103 10 -248 10 -203 0 -246
-3 -265 -16 -12 -8 -22 -22 -22 -30 0 -8 -10 -34 -22 -57 -25 -48 -38 -76 -48
-97 -4 -8 -14 -30 -23 -48 -9 -19 -17 -39 -17 -46 0 -8 -9 -25 -20 -39 -11
-14 -20 -34 -20 -45 0 -11 -7 -25 -15 -32 -8 -7 -15 -17 -15 -23 0 -5 -28 -67
-61 -136 -34 -69 -68 -142 -77 -161 -8 -19 -21 -46 -27 -60 -7 -14 -16 -40
-20 -58 -5 -27 -11 -33 -28 -30 -19 3 -24 15 -39 93 -10 50 -17 115 -18 145 0
30 -7 82 -15 115 -8 33 -17 98 -21 145 -3 47 -12 117 -20 157 -8 40 -14 101
-14 136 0 36 -5 68 -12 75 -18 18 -514 17 -521 -1z"/>
<path d="M27682 3768 c-7 -7 -12 -33 -12 -58 0 -26 -6 -69 -14 -96 -8 -27 -17
-76 -21 -109 -3 -33 -12 -82 -19 -110 -8 -27 -17 -79 -20 -115 -4 -36 -13 -83
-21 -105 -8 -22 -14 -60 -15 -84 0 -24 -6 -69 -14 -100 -8 -31 -18 -85 -21
-121 -4 -35 -14 -82 -21 -104 -8 -21 -14 -57 -14 -80 0 -23 -7 -66 -15 -96
-23 -82 -35 -203 -21 -212 6 -5 118 -7 250 -5 l238 2 18 70 c9 39 20 100 24
138 4 37 11 80 17 95 6 15 15 63 20 107 4 44 15 100 24 124 8 24 15 65 15 92
0 26 5 60 11 76 6 15 15 64 20 108 4 44 15 100 24 124 8 24 15 64 15 90 0 25
9 78 20 116 11 38 20 89 20 111 0 23 7 61 15 85 9 24 13 49 11 56 -7 18 -496
19 -514 1z"/>
<path d="M30247 3773 c-4 -3 -7 -21 -7 -38 0 -17 -7 -54 -15 -82 -8 -28 -18
-78 -21 -110 -3 -32 -12 -80 -20 -107 -7 -27 -14 -68 -14 -90 0 -23 -9 -73
-20 -111 -11 -38 -20 -88 -20 -111 0 -22 -7 -63 -15 -90 -8 -27 -15 -65 -15
-85 0 -19 -9 -69 -20 -110 -11 -41 -20 -92 -20 -115 0 -22 -6 -63 -14 -90 -8
-27 -17 -78 -21 -114 -4 -36 -12 -80 -18 -98 -9 -27 -9 -35 3 -42 9 -6 120 -9
260 -7 l245 2 7 63 c4 35 11 78 17 95 5 18 12 61 16 95 3 35 11 76 17 90 6 15
14 63 19 107 4 44 15 100 24 124 8 24 15 65 15 90 0 26 6 70 14 97 8 27 17 77
21 112 3 34 12 84 20 110 8 26 15 65 15 87 0 22 9 73 20 113 11 39 20 90 20
111 0 22 5 52 12 66 10 22 9 28 -3 36 -16 10 -492 13 -502 2z"/>
</g>
</svg>
