<svg width="65" height="64" viewBox="0 0 65 64" fill="none" xmlns="http://www.w3.org/2000/svg">
<path d="M43.1667 45.3333V50.6666H5.83337V45.3333C5.83337 45.3333 5.83337 34.6666 24.5 34.6666C43.1667 34.6666 43.1667 45.3333 43.1667 45.3333ZM33.8334 19.9999C33.8334 18.154 33.286 16.3495 32.2604 14.8146C31.2349 13.2798 29.7772 12.0835 28.0718 11.3771C26.3663 10.6706 24.4897 10.4858 22.6792 10.8459C20.8687 11.2061 19.2057 12.095 17.9004 13.4003C16.5951 14.7056 15.7062 16.3686 15.346 18.1791C14.9859 19.9896 15.1707 21.8662 15.8772 23.5716C16.5836 25.2771 17.7799 26.7348 19.3147 27.7603C20.8496 28.7859 22.6541 29.3333 24.5 29.3333C26.9754 29.3333 29.3494 28.3499 31.0997 26.5996C32.85 24.8493 33.8334 22.4753 33.8334 19.9999ZM43.0067 34.6666C44.646 35.9353 45.9874 37.5478 46.9365 39.3906C47.8856 41.2335 48.4193 43.2619 48.5 45.3333V50.6666H59.1667V45.3333C59.1667 45.3333 59.1667 35.6533 43.0067 34.6666ZM40.5 10.6666C38.6648 10.6581 36.8701 11.2067 35.3534 12.2399C36.9732 14.5032 37.8442 17.2167 37.8442 19.9999C37.8442 22.7832 36.9732 25.4966 35.3534 27.7599C36.8701 28.7932 38.6648 29.3418 40.5 29.3333C42.9754 29.3333 45.3494 28.3499 47.0997 26.5996C48.85 24.8493 49.8334 22.4753 49.8334 19.9999C49.8334 17.5246 48.85 15.1506 47.0997 13.4003C45.3494 11.6499 42.9754 10.6666 40.5 10.6666Z" fill="#60A5FA"/>
</svg>
