<svg width="64" height="64" viewBox="0 0 64 64" fill="none" xmlns="http://www.w3.org/2000/svg">
<path d="M25.28 9.24997C20.7638 7.09372 14.4513 6.03747 6.00001 5.99997C5.20297 5.98914 4.42157 6.22155 3.76001 6.66622C3.21699 7.03326 2.77249 7.5281 2.46559 8.10724C2.1587 8.68637 1.99881 9.33205 2.00001 9.98747V45.75C2.00001 48.1675 3.72001 49.9912 6.00001 49.9912C14.8838 49.9912 23.795 50.8212 29.1325 55.8662C29.2055 55.9356 29.2973 55.9819 29.3964 55.9995C29.4956 56.0171 29.5977 56.0052 29.6901 55.9652C29.7825 55.9253 29.8612 55.8591 29.9163 55.7748C29.9714 55.6905 30.0005 55.5919 30 55.4912V13.3525C30.0001 13.0682 29.9393 12.7872 29.8216 12.5284C29.7038 12.2696 29.5319 12.0391 29.3175 11.8525C28.0949 10.8073 26.7368 9.93186 25.28 9.24997ZM60.24 6.66247C59.5781 6.21891 58.7967 5.98779 58 5.99997C49.5488 6.03747 43.2363 7.08872 38.72 9.24997C37.2633 9.93061 35.9048 10.8043 34.6813 11.8475C34.4673 12.0344 34.2957 12.265 34.1782 12.5237C34.0607 12.7824 34 13.0633 34 13.3475V55.4887C33.9999 55.5855 34.0285 55.6801 34.082 55.7607C34.1355 55.8413 34.2116 55.9043 34.3008 55.9418C34.39 55.9794 34.4882 55.9897 34.5833 55.9716C34.6783 55.9535 34.7659 55.9077 34.835 55.84C38.0438 52.6525 43.675 49.9875 58.005 49.9887C59.0659 49.9887 60.0833 49.5673 60.8334 48.8171C61.5836 48.067 62.005 47.0496 62.005 45.9887V9.98872C62.0065 9.332 61.8462 8.68502 61.5384 8.10492C61.2306 7.52481 60.7847 7.02941 60.24 6.66247Z" fill="#EAB308"/>
</svg>
