<svg width="65" height="64" viewBox="0 0 65 64" fill="none" xmlns="http://www.w3.org/2000/svg">
<path fill-rule="evenodd" clip-rule="evenodd" d="M52.0014 22.3735C52.0014 24.9343 51.497 27.47 50.517 29.8359C49.537 32.2017 48.1007 34.3514 46.2899 36.1621C44.4792 37.9729 42.3295 39.4092 39.9637 40.3892C37.5978 41.3692 35.0621 41.8735 32.5014 41.8735C29.9406 41.8735 27.4049 41.3692 25.039 40.3892C22.6732 39.4092 20.5235 37.9729 18.7128 36.1621C16.902 34.3514 15.4657 32.2017 14.4857 29.8359C13.5057 27.47 13.0014 24.9343 13.0014 22.3735C13.0014 17.2018 15.0558 12.2419 18.7128 8.58495C22.3697 4.92799 27.3296 2.87354 32.5014 2.87354C37.6731 2.87354 42.633 4.92799 46.2899 8.58495C49.9469 12.2419 52.0014 17.2018 52.0014 22.3735ZM32.3667 12.2482L35.82 18.1682L41.74 19.6455L37.7934 24.0855L38.78 30.9922L32.3667 28.0322L25.956 30.9922L26.9427 24.0855L22.996 19.6455L28.916 18.1655L32.3667 12.2482ZM3.48669 52.4589L13.1507 35.7175C14.9593 38.3445 17.2844 40.5752 19.984 42.2735C22.6836 43.9717 25.701 45.1019 28.852 45.5949L19.5374 61.7255L16.1187 49.1095L3.48669 52.4535V52.4589ZM45.46 61.7255L36.148 45.5922C39.2988 45.0995 42.3161 43.9698 45.0157 42.272C47.7153 40.5742 50.0405 38.344 51.8494 35.7175L61.5134 52.4562L48.8787 49.1095L45.4627 61.7229L45.46 61.7255Z" fill="#EF4444"/>
</svg>
