<svg width="64" height="64" viewBox="0 0 64 64" fill="none" xmlns="http://www.w3.org/2000/svg">
<path d="M16.03 36.9499C16.0368 37.0854 16.016 37.2208 15.9688 37.3479C15.9215 37.4751 15.849 37.5913 15.7554 37.6895C15.6619 37.7878 15.5493 37.8659 15.4246 37.9193C15.2999 37.9726 15.1657 38.0001 15.03 37.9999H4.00003C3.54862 38.0006 3.11025 37.8485 2.75621 37.5685C2.40217 37.2884 2.15329 36.8968 2.05003 36.4574C1.98573 36.1566 1.98869 35.8453 2.05871 35.5458C2.12872 35.2463 2.26405 34.966 2.45503 34.7249C4.21963 32.3849 6.56081 30.5425 9.25003 29.3774C8.06934 28.3009 7.16379 26.9572 6.60922 25.4587C6.05464 23.9603 5.86719 22.3508 6.06256 20.765C6.25793 19.1792 6.83044 17.6634 7.73212 16.3444C8.63381 15.0253 9.83844 13.9416 11.2451 13.1838C12.6518 12.4261 14.2195 12.0165 15.817 11.9892C17.4146 11.962 18.9954 12.318 20.4271 13.0273C21.8587 13.7366 23.0996 14.7787 24.0457 16.0662C24.9919 17.3537 25.6157 18.8492 25.865 20.4274C25.8972 20.6396 25.8592 20.8566 25.7568 21.0452C25.6543 21.2338 25.4931 21.3838 25.2975 21.4724C22.5235 22.7548 20.1742 24.804 18.5268 27.3781C16.8794 29.9522 16.0027 32.9438 16 35.9999C16 36.3199 16 36.6349 16.03 36.9499ZM61.53 34.7224C59.7696 32.3851 57.4337 30.5436 54.75 29.3774C55.9307 28.3009 56.8363 26.9572 57.3908 25.4587C57.9454 23.9603 58.1329 22.3508 57.9375 20.765C57.7421 19.1792 57.1696 17.6634 56.2679 16.3444C55.3662 15.0253 54.1616 13.9416 52.755 13.1838C51.3483 12.4261 49.7805 12.0165 48.183 11.9892C46.5855 11.962 45.0047 12.318 43.573 13.0273C42.1413 13.7366 40.9004 14.7787 39.9543 16.0662C39.0082 17.3537 38.3843 18.8492 38.135 20.4274C38.1028 20.6396 38.1409 20.8566 38.2433 21.0452C38.3457 21.2338 38.507 21.3838 38.7025 21.4724C41.4765 22.7548 43.8259 24.804 45.4733 27.3781C47.1207 29.9522 47.9974 32.9438 48 35.9999C48 36.3199 48 36.6349 47.97 36.9499C47.9632 37.0854 47.9841 37.2208 48.0313 37.3479C48.0785 37.4751 48.1511 37.5913 48.2446 37.6895C48.3382 37.7878 48.4507 37.8659 48.5754 37.9193C48.7001 37.9726 48.8344 38.0001 48.97 37.9999H60C60.4514 38.0006 60.8898 37.8485 61.2438 37.5685C61.5979 37.2884 61.8468 36.8968 61.95 36.4574C62.0147 36.1561 62.0117 35.8441 61.9413 35.5441C61.8708 35.2441 61.7346 34.9634 61.5425 34.7224H61.53ZM39.28 45.5174C41.2714 43.9923 42.7348 41.8816 43.4646 39.4818C44.1944 37.082 44.1539 34.5139 43.3487 32.1384C42.5436 29.7628 41.0143 27.6993 38.9758 26.2378C36.9373 24.7763 34.4921 23.9903 31.9838 23.9903C29.4755 23.9903 27.0303 24.7763 24.9918 26.2378C22.9533 27.6993 21.424 29.7628 20.6188 32.1384C19.8137 34.5139 19.7731 37.082 20.5029 39.4818C21.2327 41.8816 22.6962 43.9923 24.6875 45.5174C21.1539 47.0485 18.2032 49.6706 16.2675 52.9999C16.092 53.304 15.9996 53.6489 15.9996 54C15.9996 54.3511 16.0921 54.696 16.2676 55.0001C16.4432 55.3041 16.6958 55.5566 16.9999 55.7321C17.304 55.9076 17.6489 56 18 55.9999H46C46.3511 56 46.6961 55.9076 47.0002 55.7321C47.3043 55.5566 47.5568 55.3041 47.7324 55.0001C47.908 54.696 48.0005 54.3511 48.0005 54C48.0005 53.6489 47.9081 53.304 47.7325 52.9999C45.7927 49.6684 42.8366 47.0461 39.2975 45.5174H39.28Z" fill="#A855F7"/>
</svg>
