<svg width="50" height="50" viewBox="0 0 50 50" fill="none" xmlns="http://www.w3.org/2000/svg">
<rect width="50" height="50" rx="5" fill="#FF8686"/>
<path d="M29.5817 20.716L31.8257 19.996L31.2065 17.008L28.3001 17.968C27.2561 16.528 25.6865 16.528 24.6305 16.7392C24.5897 16.3456 24.6017 15.22 25.9481 14.6416L25.7561 14.2C25.2312 14.3953 24.7878 14.7625 24.498 15.2418C24.2083 15.7211 24.0892 16.2844 24.1601 16.84V16.8568C23.9378 16.9209 23.7204 17.0011 23.5097 17.0968L23.3705 17.1592V17.1472C23.091 16.296 23.0283 15.3886 23.1881 14.5072L22.7081 14.4064C22.5215 15.4013 22.5968 16.4277 22.9265 17.3848C22.8049 17.4568 22.6881 17.5368 22.5761 17.6248V17.6104L20.7281 15.0256L20.3393 15.3064L21.2489 16.5712C20.9215 16.3923 20.5608 16.2826 20.1893 16.2487C19.8178 16.2149 19.4432 16.2576 19.0889 16.3744L19.2401 16.84C20.6129 16.3816 21.7865 17.4904 22.1849 17.9296V17.9416C21.7753 18.3281 21.4629 18.8058 21.2729 19.336C21.1692 19.625 21.0968 19.9243 21.0569 20.2288C20.4953 20.6536 17.5793 23.0128 17.6273 26.296C17.6418 27.0665 17.8133 27.826 18.1313 28.528V28.5712H18.1625C18.8825 30.1336 20.2937 31.6312 22.4153 33.0448C25.1945 34.888 27.3257 35.8 28.8857 35.8C29.3042 35.804 29.7191 35.7224 30.1049 35.56C31.4705 34.9744 31.9121 33.4216 32.1617 31.9816C32.6489 29.1952 32.3441 23.0248 29.5817 20.716ZM30.8705 23.4232L30.8849 23.452C30.0401 23.2768 28.3097 23.0656 27.1121 24.0064C26.9407 23.4256 26.9781 22.8032 27.2177 22.2472C27.5105 21.64 28.1201 21.1744 28.9985 20.884L29.0177 20.9008C29.8313 21.4576 30.4337 22.36 30.8705 23.4232ZM18.1265 26.284C18.0881 23.692 20.1329 21.64 21.0305 20.8792C21.0578 22.0577 21.3231 23.2185 21.8105 24.292C21.0257 24.6008 20.3149 25.0717 19.7244 25.6738C19.1338 26.2759 18.6769 26.9957 18.3833 27.7864C18.2223 27.3014 18.1357 26.7948 18.1265 26.284ZM31.6889 31.9072C31.4489 33.2224 31.0697 34.6312 29.9153 35.128C28.5041 35.7352 26.0753 34.888 22.6913 32.644C20.6945 31.312 19.3457 29.9176 18.6593 28.4752C18.8489 27.8104 19.6745 25.504 22.2161 24.6568L22.4801 24.568L22.3529 24.328C22.3385 24.3016 20.9801 21.5968 21.7433 19.4992C21.9126 19.0523 22.1753 18.6466 22.5138 18.3093C22.8524 17.972 23.259 17.7108 23.7065 17.5432C23.8193 17.488 26.3993 16.2808 27.8633 18.2032C27.2538 18.4362 26.6618 18.7129 26.0921 19.0312C25.6289 18.8392 24.7769 18.808 24.1289 19.8016C23.2721 21.1144 24.2393 22.756 24.2801 22.8256L24.4145 23.0512L24.6257 22.8952C24.6569 22.8712 25.4033 22.3168 25.3169 21.628C25.2641 21.2056 24.9233 20.8552 24.3065 20.5864C24.3498 20.4003 24.4253 20.2232 24.5297 20.0632C25.1633 19.1032 25.9049 19.468 25.9865 19.5136L26.1209 19.5904L26.2457 19.5016C26.2457 19.5016 27.1913 18.8488 30.8297 17.6368L31.2545 19.6696L28.4825 20.5624C27.7494 20.821 27.142 21.3487 26.7833 22.0384C26.2145 23.2384 26.7569 24.472 26.7833 24.5248L26.9273 24.8488L27.1673 24.592C28.3337 23.392 30.5057 23.8432 31.0697 23.9896L31.0841 24.0112C31.9865 26.6584 32.0129 30.04 31.6889 31.9072ZM24.2633 21.1072C24.5465 21.2488 24.8153 21.4504 24.8489 21.7024C24.8468 21.8208 24.8203 21.9375 24.7712 22.0452C24.722 22.153 24.6513 22.2495 24.5633 22.3288C24.3839 21.941 24.282 21.522 24.2633 21.0952V21.1072Z" fill="white"/>
</svg>
