<svg width="50" height="50" viewBox="0 0 50 50" fill="none" xmlns="http://www.w3.org/2000/svg">
<rect width="50" height="50" rx="5" fill="#74B0FF"/>
<path d="M30.3034 24.9999L32.9012 22.4012C33.2594 22.0553 33.545 21.6415 33.7416 21.184C33.9381 20.7264 34.0416 20.2344 34.0459 19.7364C34.0502 19.2385 33.9553 18.7447 33.7668 18.2839C33.5782 17.823 33.2998 17.4043 32.9477 17.0522C32.5956 16.7001 32.1769 16.4217 31.716 16.2331C31.2552 16.0446 30.7614 15.9497 30.2634 15.954C29.7655 15.9583 29.2734 16.0618 28.8159 16.2583C28.3584 16.4548 27.9446 16.7405 27.5987 17.0987L24.9999 19.6965L22.4012 17.0987C22.0553 16.7405 21.6415 16.4548 21.184 16.2583C20.7264 16.0618 20.2344 15.9583 19.7364 15.954C19.2385 15.9497 18.7447 16.0446 18.2839 16.2331C17.823 16.4217 17.4043 16.7001 17.0522 17.0522C16.7001 17.4043 16.4217 17.823 16.2331 18.2839C16.0446 18.7447 15.9497 19.2385 15.954 19.7364C15.9583 20.2344 16.0618 20.7264 16.2583 21.184C16.4548 21.6415 16.7405 22.0553 17.0987 22.4012L19.6965 24.9999L17.0987 27.5987C16.7405 27.9446 16.4548 28.3584 16.2583 28.8159C16.0618 29.2734 15.9583 29.7655 15.954 30.2634C15.9497 30.7614 16.0446 31.2552 16.2331 31.716C16.4217 32.1769 16.7001 32.5956 17.0522 32.9477C17.4043 33.2998 17.823 33.5782 18.2839 33.7668C18.7447 33.9553 19.2385 34.0502 19.7364 34.0459C20.2344 34.0416 20.7264 33.9381 21.184 33.7416C21.6415 33.545 22.0553 33.2594 22.4012 32.9012L24.9999 30.3034L27.5987 32.9012C27.9446 33.2594 28.3584 33.545 28.8159 33.7416C29.2734 33.9381 29.7655 34.0416 30.2634 34.0459C30.7614 34.0502 31.2552 33.9553 31.716 33.7668C32.1769 33.5782 32.5956 33.2998 32.9477 32.9477C33.2998 32.5956 33.5782 32.1769 33.7668 31.716C33.9553 31.2552 34.0502 30.7614 34.0459 30.2634C34.0416 29.7655 33.9381 29.2734 33.7416 28.8159C33.545 28.3584 33.2594 27.9446 32.9012 27.5987L30.3034 24.9999ZM28.6562 18.1562C28.8655 17.9469 29.114 17.7809 29.3874 17.6676C29.6609 17.5543 29.954 17.496 30.2499 17.496C30.5459 17.496 30.839 17.5543 31.1125 17.6676C31.3859 17.7809 31.6344 17.9469 31.8437 18.1562C32.053 18.3655 32.219 18.614 32.3323 18.8874C32.4455 19.1609 32.5038 19.454 32.5038 19.7499C32.5038 20.0459 32.4455 20.339 32.3323 20.6125C32.219 20.8859 32.053 21.1344 31.8437 21.3437L29.2449 23.9424L26.0603 20.7578L28.6562 18.1562ZM28.179 24.9999L24.9999 28.1818L21.8181 24.9999L24.9999 21.8181L28.179 24.9999ZM18.1562 21.3437C17.9469 21.1344 17.7809 20.8859 17.6676 20.6125C17.5543 20.339 17.496 20.0459 17.496 19.7499C17.496 19.454 17.5543 19.1609 17.6676 18.8874C17.7809 18.614 17.9469 18.3655 18.1562 18.1562C18.3655 17.9469 18.614 17.7809 18.8874 17.6676C19.1609 17.5543 19.454 17.496 19.7499 17.496C20.0459 17.496 20.339 17.5543 20.6125 17.6676C20.8859 17.7809 21.1344 17.9469 21.3437 18.1562L23.9424 20.7549L20.7578 23.9396L18.1562 21.3437ZM21.3437 31.8437C21.1344 32.053 20.8859 32.219 20.6125 32.3323C20.339 32.4455 20.0459 32.5038 19.7499 32.5038C19.454 32.5038 19.1609 32.4455 18.8874 32.3323C18.614 32.219 18.3655 32.053 18.1562 31.8437C17.9469 31.6344 17.7809 31.3859 17.6676 31.1125C17.5543 30.839 17.496 30.5459 17.496 30.2499C17.496 29.954 17.5543 29.6609 17.6676 29.3874C17.7809 29.114 17.9469 28.8655 18.1562 28.6562L20.7549 26.0574L23.9368 29.2393L21.3437 31.8437ZM31.8437 31.8437C31.6347 32.0534 31.3863 32.2199 31.1128 32.3334C30.8393 32.447 30.5461 32.5055 30.2499 32.5055C29.9538 32.5055 29.6606 32.447 29.3871 32.3334C29.1136 32.2199 28.8652 32.0534 28.6562 31.8437L26.0574 29.2449L29.2393 26.0631L31.8437 28.6562C32.0534 28.8652 32.2199 29.1136 32.3334 29.3871C32.447 29.6606 32.5055 29.9538 32.5055 30.2499C32.5055 30.5461 32.447 30.8393 32.3334 31.1128C32.2199 31.3863 32.0534 31.6347 31.8437 31.8437ZM23.8749 24.9999C23.8749 24.7774 23.9409 24.5599 24.0645 24.3749C24.1882 24.1899 24.3639 24.0457 24.5694 23.9606C24.775 23.8754 25.0012 23.8531 25.2194 23.8966C25.4376 23.94 25.6381 24.0471 25.7954 24.2044C25.9528 24.3618 26.0599 24.5622 26.1033 24.7805C26.1467 24.9987 26.1245 25.2249 26.0393 25.4305C25.9542 25.636 25.81 25.8117 25.625 25.9353C25.4399 26.059 25.2224 26.1249 24.9999 26.1249C24.7016 26.1249 24.4154 26.0064 24.2044 25.7954C23.9935 25.5845 23.8749 25.2983 23.8749 24.9999Z" fill="white"/>
</svg>
